<svg xmlns="http://www.w3.org/2000/svg" xmlns:xlink="http://www.w3.org/1999/xlink" width="2500" zoomAndPan="magnify" viewBox="0 0 1874.88 374.999991" height="500" preserveAspectRatio="xMidYMid meet" version="1.0"><defs><g/><clipPath id="8e2c2b693a"><path d="M 12.742188 5.449219 L 376.847656 5.449219 L 376.847656 369.550781 L 12.742188 369.550781 Z M 12.742188 5.449219 " clip-rule="nonzero"/></clipPath><clipPath id="d221c76494"><path d="M 442 0.0117188 L 1874.761719 0.0117188 L 1874.761719 299 L 442 299 Z M 442 0.0117188 " clip-rule="nonzero"/></clipPath><clipPath id="cefea9041f"><rect x="0" width="1433" y="0" height="299"/></clipPath><clipPath id="8421cead6d"><rect x="0" width="281" y="0" height="234"/></clipPath><radialGradient gradientTransform="matrix(1.333419, 0, -0, 1.333419, 0.00000343112, 0.000000910532)" gradientUnits="userSpaceOnUse" r="659.733517" cx="659.732002" id="5fe81e0eef" cy="1.499904" fx="659.732002" fy="1.499904"><stop stop-opacity="1" stop-color="rgb(76.078796%, 60.389709%, 32.159424%)" offset="0"/><stop stop-opacity="1" stop-color="rgb(76.078796%, 60.389709%, 32.159424%)" offset="0.5"/><stop stop-opacity="1" stop-color="rgb(76.078796%, 60.389709%, 32.159424%)" offset="0.625"/><stop stop-opacity="1" stop-color="rgb(76.113892%, 60.446167%, 32.25708%)" offset="0.648438"/><stop stop-opacity="1" stop-color="rgb(76.289368%, 60.736084%, 32.754517%)" offset="0.667969"/><stop stop-opacity="1" stop-color="rgb(76.570129%, 61.201477%, 33.5495%)" offset="0.671875"/><stop stop-opacity="1" stop-color="rgb(76.850891%, 61.665344%, 34.346008%)" offset="0.675781"/><stop stop-opacity="1" stop-color="rgb(77.130127%, 62.130737%, 35.140991%)" offset="0.679688"/><stop stop-opacity="1" stop-color="rgb(77.410889%, 62.594604%, 35.9375%)" offset="0.683594"/><stop stop-opacity="1" stop-color="rgb(77.69165%, 63.059998%, 36.732483%)" offset="0.6875"/><stop stop-opacity="1" stop-color="rgb(77.972412%, 63.523865%, 37.528992%)" offset="0.691406"/><stop stop-opacity="1" stop-color="rgb(78.253174%, 63.989258%, 38.323975%)" offset="0.695312"/><stop stop-opacity="1" stop-color="rgb(78.533936%, 64.453125%, 39.120483%)" offset="0.699219"/><stop stop-opacity="1" stop-color="rgb(78.814697%, 64.918518%, 39.916992%)" offset="0.703125"/><stop stop-opacity="1" stop-color="rgb(79.095459%, 65.382385%, 40.711975%)" offset="0.707031"/><stop stop-opacity="1" stop-color="rgb(79.376221%, 65.847778%, 41.508484%)" offset="0.710938"/><stop stop-opacity="1" stop-color="rgb(79.655457%, 66.311646%, 42.303467%)" offset="0.714844"/><stop stop-opacity="1" stop-color="rgb(79.936218%, 66.777039%, 43.099976%)" offset="0.71875"/><stop stop-opacity="1" stop-color="rgb(80.21698%, 67.240906%, 43.894958%)" offset="0.722656"/><stop stop-opacity="1" stop-color="rgb(80.497742%, 67.706299%, 44.691467%)" offset="0.726562"/><stop stop-opacity="1" stop-color="rgb(80.778503%, 68.170166%, 45.48645%)" offset="0.730469"/><stop stop-opacity="1" stop-color="rgb(81.059265%, 68.635559%, 46.282959%)" offset="0.734375"/><stop stop-opacity="1" stop-color="rgb(81.340027%, 69.099426%, 47.077942%)" offset="0.738281"/><stop stop-opacity="1" stop-color="rgb(81.620789%, 69.564819%, 47.874451%)" offset="0.742188"/><stop stop-opacity="1" stop-color="rgb(81.90155%, 70.028687%, 48.669434%)" offset="0.746094"/><stop stop-opacity="1" stop-color="rgb(82.180786%, 70.49408%, 49.465942%)" offset="0.75"/><stop stop-opacity="1" stop-color="rgb(82.461548%, 70.957947%, 50.260925%)" offset="0.753906"/><stop stop-opacity="1" stop-color="rgb(82.74231%, 71.42334%, 51.057434%)" offset="0.757812"/><stop stop-opacity="1" stop-color="rgb(83.023071%, 71.887207%, 51.853943%)" offset="0.761719"/><stop stop-opacity="1" stop-color="rgb(83.303833%, 72.3526%, 52.648926%)" offset="0.765625"/><stop stop-opacity="1" stop-color="rgb(83.584595%, 72.816467%, 53.445435%)" offset="0.769531"/><stop stop-opacity="1" stop-color="rgb(83.865356%, 73.28186%, 54.240417%)" offset="0.773438"/><stop stop-opacity="1" stop-color="rgb(84.146118%, 73.745728%, 55.036926%)" offset="0.777344"/><stop stop-opacity="1" stop-color="rgb(84.42688%, 74.211121%, 55.831909%)" offset="0.78125"/><stop stop-opacity="1" stop-color="rgb(84.706116%, 74.674988%, 56.628418%)" offset="0.785156"/><stop stop-opacity="1" stop-color="rgb(84.986877%, 75.140381%, 57.423401%)" offset="0.789062"/><stop stop-opacity="1" stop-color="rgb(85.267639%, 75.605774%, 58.21991%)" offset="0.792969"/><stop stop-opacity="1" stop-color="rgb(85.548401%, 76.069641%, 59.014893%)" offset="0.796875"/><stop stop-opacity="1" stop-color="rgb(85.829163%, 76.535034%, 59.811401%)" offset="0.800781"/><stop stop-opacity="1" stop-color="rgb(86.109924%, 76.998901%, 60.606384%)" offset="0.804688"/><stop stop-opacity="1" stop-color="rgb(86.390686%, 77.464294%, 61.402893%)" offset="0.808594"/><stop stop-opacity="1" stop-color="rgb(86.671448%, 77.928162%, 62.197876%)" offset="0.8125"/><stop stop-opacity="1" stop-color="rgb(86.952209%, 78.393555%, 62.994385%)" offset="0.816406"/><stop stop-opacity="1" stop-color="rgb(87.231445%, 78.857422%, 63.790894%)" offset="0.820312"/><stop stop-opacity="1" stop-color="rgb(87.512207%, 79.322815%, 64.585876%)" offset="0.824219"/><stop stop-opacity="1" stop-color="rgb(87.792969%, 79.786682%, 65.382385%)" offset="0.828125"/><stop stop-opacity="1" stop-color="rgb(88.07373%, 80.252075%, 66.177368%)" offset="0.832031"/><stop stop-opacity="1" stop-color="rgb(88.354492%, 80.715942%, 66.973877%)" offset="0.835938"/><stop stop-opacity="1" stop-color="rgb(88.635254%, 81.181335%, 67.76886%)" offset="0.839844"/><stop stop-opacity="1" stop-color="rgb(88.916016%, 81.645203%, 68.565369%)" offset="0.84375"/><stop stop-opacity="1" stop-color="rgb(89.196777%, 82.110596%, 69.360352%)" offset="0.847656"/><stop stop-opacity="1" stop-color="rgb(89.477539%, 82.574463%, 70.15686%)" offset="0.851562"/><stop stop-opacity="1" stop-color="rgb(89.756775%, 83.039856%, 70.951843%)" offset="0.855469"/><stop stop-opacity="1" stop-color="rgb(90.037537%, 83.503723%, 71.748352%)" offset="0.859375"/><stop stop-opacity="1" stop-color="rgb(90.318298%, 83.969116%, 72.543335%)" offset="0.863281"/><stop stop-opacity="1" stop-color="rgb(90.59906%, 84.432983%, 73.339844%)" offset="0.867188"/><stop stop-opacity="1" stop-color="rgb(90.879822%, 84.898376%, 74.134827%)" offset="0.871094"/><stop stop-opacity="1" stop-color="rgb(91.160583%, 85.362244%, 74.931335%)" offset="0.875"/><stop stop-opacity="1" stop-color="rgb(91.441345%, 85.827637%, 75.727844%)" offset="0.878906"/><stop stop-opacity="1" stop-color="rgb(91.722107%, 86.291504%, 76.522827%)" offset="0.882812"/><stop stop-opacity="1" stop-color="rgb(92.002869%, 86.756897%, 77.319336%)" offset="0.886719"/><stop stop-opacity="1" stop-color="rgb(92.282104%, 87.220764%, 78.114319%)" offset="0.890625"/><stop stop-opacity="1" stop-color="rgb(92.562866%, 87.686157%, 78.910828%)" offset="0.894531"/><stop stop-opacity="1" stop-color="rgb(92.843628%, 88.150024%, 79.705811%)" offset="0.898438"/><stop stop-opacity="1" stop-color="rgb(93.12439%, 88.615417%, 80.502319%)" offset="0.902344"/><stop stop-opacity="1" stop-color="rgb(93.405151%, 89.079285%, 81.297302%)" offset="0.90625"/><stop stop-opacity="1" stop-color="rgb(93.685913%, 89.544678%, 82.093811%)" offset="0.910156"/><stop stop-opacity="1" stop-color="rgb(93.966675%, 90.008545%, 82.888794%)" offset="0.914062"/><stop stop-opacity="1" stop-color="rgb(94.247437%, 90.473938%, 83.685303%)" offset="0.917969"/><stop stop-opacity="1" stop-color="rgb(94.528198%, 90.937805%, 84.480286%)" offset="0.921875"/><stop stop-opacity="1" stop-color="rgb(94.807434%, 91.403198%, 85.276794%)" offset="0.925781"/><stop stop-opacity="1" stop-color="rgb(95.088196%, 91.867065%, 86.071777%)" offset="0.929688"/><stop stop-opacity="1" stop-color="rgb(95.368958%, 92.332458%, 86.868286%)" offset="0.933594"/><stop stop-opacity="1" stop-color="rgb(95.649719%, 92.796326%, 87.664795%)" offset="0.9375"/><stop stop-opacity="1" stop-color="rgb(95.930481%, 93.261719%, 88.459778%)" offset="0.941406"/><stop stop-opacity="1" stop-color="rgb(96.211243%, 93.725586%, 89.256287%)" offset="0.945312"/><stop stop-opacity="1" stop-color="rgb(96.492004%, 94.190979%, 90.05127%)" offset="0.949219"/><stop stop-opacity="1" stop-color="rgb(96.772766%, 94.654846%, 90.847778%)" offset="0.953125"/><stop stop-opacity="1" stop-color="rgb(97.053528%, 95.120239%, 91.642761%)" offset="0.957031"/><stop stop-opacity="1" stop-color="rgb(97.332764%, 95.584106%, 92.43927%)" offset="0.960938"/><stop stop-opacity="1" stop-color="rgb(97.613525%, 96.0495%, 93.234253%)" offset="0.964844"/><stop stop-opacity="1" stop-color="rgb(97.894287%, 96.513367%, 94.030762%)" offset="0.96875"/><stop stop-opacity="1" stop-color="rgb(98.175049%, 96.97876%, 94.825745%)" offset="0.972656"/><stop stop-opacity="1" stop-color="rgb(98.455811%, 97.442627%, 95.622253%)" offset="0.976562"/><stop stop-opacity="1" stop-color="rgb(98.736572%, 97.90802%, 96.417236%)" offset="0.980469"/><stop stop-opacity="1" stop-color="rgb(99.017334%, 98.371887%, 97.213745%)" offset="0.984375"/><stop stop-opacity="1" stop-color="rgb(99.298096%, 98.83728%, 98.008728%)" offset="0.988281"/><stop stop-opacity="1" stop-color="rgb(99.578857%, 99.301147%, 98.805237%)" offset="0.992188"/><stop stop-opacity="1" stop-color="rgb(99.859619%, 99.766541%, 99.601746%)" offset="0.996094"/><stop stop-opacity="1" stop-color="rgb(100%, 100%, 100%)" offset="1"/></radialGradient></defs><g clip-path="url(#8e2c2b693a)"><path stroke-linecap="butt" transform="matrix(0.749952, 0, 0, 0.749952, 12.74407, 5.447465)" fill="none" stroke-linejoin="miter" d="M -0.00250968 0.00233851 L 485.50251 0.00233851 L 485.50251 485.50215 L -0.00250968 485.50215 Z M -0.00250968 0.00233851 " stroke="#c29a52" stroke-width="6" stroke-opacity="1" stroke-miterlimit="4"/></g><g clip-path="url(#d221c76494)"><g transform="matrix(1, 0, 0, 1, 442, 0.000000000000016352)"><g clip-path="url(#cefea9041f)"><g fill="#ffffff" fill-opacity="1"><g transform="translate(0.504646, 201.832026)"><g><path d="M 152.65625 -158.359375 C 152.65625 -162.503906 151.1875 -166.085938 148.25 -169.109375 C 145.3125 -172.140625 141.859375 -173.742188 137.890625 -173.921875 L 88.640625 -173.921875 L 88.640625 -18.65625 C 88.816406 -14.164062 90.5 -10.363281 93.6875 -7.25 C 96.882812 -4.144531 100.734375 -2.59375 105.234375 -2.59375 L 108.59375 -2.59375 L 108.59375 0 L 51.84375 0 L 51.84375 -2.59375 L 55.203125 -2.59375 C 59.703125 -2.59375 63.546875 -4.144531 66.734375 -7.25 C 69.929688 -10.363281 71.617188 -14.082031 71.796875 -18.40625 L 71.796875 -173.921875 L 22.546875 -173.921875 C 18.398438 -173.742188 14.898438 -172.140625 12.046875 -169.109375 C 9.203125 -166.085938 7.78125 -162.503906 7.78125 -158.359375 L 7.78125 -153.953125 L 5.1875 -153.703125 L 5.1875 -186.359375 C 7.78125 -185.316406 12.269531 -184.273438 18.65625 -183.234375 C 25.050781 -182.203125 30.925781 -181.6875 36.28125 -181.6875 L 123.890625 -181.6875 C 132.359375 -181.6875 139.398438 -182.332031 145.015625 -183.625 C 150.628906 -184.925781 154.039062 -185.835938 155.25 -186.359375 L 155.25 -153.703125 L 152.65625 -153.953125 Z M 152.65625 -158.359375 "/></g></g></g><g fill="#ffffff" fill-opacity="1"><g transform="translate(186.599531, 201.832026)"><g><path d="M 68.9375 -173.390625 L 52.359375 -173.390625 L 52.359375 -18.921875 C 52.359375 -14.429688 53.957031 -10.585938 57.15625 -7.390625 C 60.351562 -4.191406 64.28125 -2.59375 68.9375 -2.59375 L 72.046875 -2.59375 L 72.3125 0 L 15.546875 0 L 15.546875 -2.59375 L 18.921875 -2.59375 C 23.410156 -2.59375 27.253906 -4.144531 30.453125 -7.25 C 33.648438 -10.363281 35.335938 -14.164062 35.515625 -18.65625 L 35.515625 -162.515625 C 35.335938 -167.003906 33.648438 -170.847656 30.453125 -174.046875 C 27.253906 -177.242188 23.410156 -178.84375 18.921875 -178.84375 L 15.546875 -178.84375 L 15.546875 -181.4375 L 85.53125 -181.4375 C 101.257812 -181.4375 113.613281 -177.070312 122.59375 -168.34375 C 131.582031 -159.613281 136.078125 -148.296875 136.078125 -134.390625 C 136.078125 -120.484375 131.796875 -108.472656 123.234375 -98.359375 C 114.679688 -88.253906 104.273438 -83.203125 92.015625 -83.203125 C 94.609375 -81.992188 97.675781 -79.617188 101.21875 -76.078125 C 104.757812 -72.535156 107.910156 -68.863281 110.671875 -65.0625 C 125.535156 -43.800781 135.210938 -30.707031 139.703125 -25.78125 C 144.191406 -20.863281 147.382812 -17.492188 149.28125 -15.671875 C 151.1875 -13.859375 153.257812 -12.085938 155.5 -10.359375 C 157.75 -8.640625 160 -7.257812 162.25 -6.21875 C 167.257812 -3.800781 172.617188 -2.59375 178.328125 -2.59375 L 178.328125 0 L 164.0625 0 C 156.632812 0 149.722656 -1.335938 143.328125 -4.015625 C 136.929688 -6.691406 132.132812 -9.457031 128.9375 -12.3125 C 125.75 -15.164062 122.988281 -17.929688 120.65625 -20.609375 C 118.320312 -23.285156 111.882812 -32.222656 101.34375 -47.421875 C 90.800781 -62.628906 84.664062 -71.3125 82.9375 -73.46875 C 81.207031 -75.632812 79.394531 -77.753906 77.5 -79.828125 C 71.96875 -85.703125 66.4375 -88.640625 60.90625 -88.640625 L 60.90625 -91.234375 C 62.289062 -91.054688 64.101562 -90.96875 66.34375 -90.96875 C 68.59375 -90.96875 71.359375 -91.054688 74.640625 -91.234375 C 96.066406 -91.753906 109.546875 -100.738281 115.078125 -118.1875 C 116.117188 -121.644531 116.640625 -124.882812 116.640625 -127.90625 C 116.640625 -130.925781 116.640625 -132.867188 116.640625 -133.734375 C 116.285156 -145.316406 113.257812 -154.648438 107.5625 -161.734375 C 101.863281 -168.816406 94.175781 -172.617188 84.5 -173.140625 C 80.351562 -173.304688 75.164062 -173.390625 68.9375 -173.390625 Z M 68.9375 -173.390625 "/></g></g></g><g fill="#ffffff" fill-opacity="1"><g transform="translate(387.986281, 201.832026)"><g><path d="M 185.578125 -2.59375 L 187.65625 -2.59375 L 187.65625 0 L 129.34375 0 L 129.34375 -2.59375 L 131.671875 -2.59375 C 135.296875 -2.59375 138.015625 -3.757812 139.828125 -6.09375 C 141.648438 -8.425781 142.5625 -10.628906 142.5625 -12.703125 C 142.5625 -14.773438 142.210938 -16.847656 141.515625 -18.921875 L 124.9375 -62.984375 L 54.953125 -62.984375 L 37.59375 -18.65625 C 36.894531 -16.582031 36.546875 -14.550781 36.546875 -12.5625 C 36.546875 -10.582031 37.453125 -8.425781 39.265625 -6.09375 C 41.085938 -3.757812 43.8125 -2.59375 47.4375 -2.59375 L 49.765625 -2.59375 L 49.765625 0 L -2.328125 0 L -2.328125 -2.59375 L 0 -2.59375 C 4.320312 -2.59375 8.554688 -3.972656 12.703125 -6.734375 C 16.847656 -9.503906 20.21875 -13.566406 22.8125 -18.921875 L 81.390625 -158.359375 C 87.785156 -172.359375 90.984375 -181.257812 90.984375 -185.0625 L 93.3125 -185.0625 L 162.78125 -18.921875 C 165.195312 -13.566406 168.476562 -9.503906 172.625 -6.734375 C 176.769531 -3.972656 181.085938 -2.59375 185.578125 -2.59375 Z M 58.0625 -70.765625 L 121.828125 -70.765625 L 90.71875 -153.953125 Z M 58.0625 -70.765625 "/></g></g></g><g fill="#ffffff" fill-opacity="1"><g transform="translate(598.444488, 201.832026)"><g><path d="M 194.65625 -178.84375 L 192.328125 -178.84375 C 186.453125 -178.84375 181.09375 -176.507812 176.25 -171.84375 C 173.488281 -169.425781 171.332031 -166.398438 169.78125 -162.765625 L 107.3125 -23.0625 C 100.914062 -9.070312 97.71875 -0.175781 97.71875 3.625 L 95.390625 3.625 L 22.5625 -162.515625 C 20.132812 -168.035156 16.804688 -172.132812 12.578125 -174.8125 C 8.347656 -177.5 4.070312 -178.84375 -0.25 -178.84375 L -2.328125 -178.84375 L -2.328125 -181.4375 L 55.984375 -181.4375 L 55.984375 -178.84375 L 53.65625 -178.84375 C 48.46875 -178.84375 45.015625 -176.421875 43.296875 -171.578125 C 42.941406 -170.546875 42.765625 -169.335938 42.765625 -167.953125 C 42.765625 -166.566406 43.195312 -164.835938 44.0625 -162.765625 L 98.234375 -26.953125 L 154.734375 -162.765625 C 155.429688 -164.835938 155.78125 -166.867188 155.78125 -168.859375 C 155.78125 -170.847656 154.867188 -173.007812 153.046875 -175.34375 C 151.234375 -177.675781 148.515625 -178.84375 144.890625 -178.84375 L 142.5625 -178.84375 L 142.5625 -181.4375 L 194.65625 -181.4375 Z M 194.65625 -178.84375 "/></g></g></g><g fill="#ffffff" fill-opacity="1"><g transform="translate(816.159893, 201.832026)"><g><path d="M 18.921875 -2.59375 C 23.410156 -2.59375 27.253906 -4.191406 30.453125 -7.390625 C 33.648438 -10.585938 35.335938 -14.429688 35.515625 -18.921875 L 35.515625 -164.0625 C 34.992188 -168.207031 33.175781 -171.707031 30.0625 -174.5625 C 26.957031 -177.414062 23.242188 -178.84375 18.921875 -178.84375 L 15.8125 -178.84375 L 15.546875 -181.4375 L 91.5 -181.4375 C 96.851562 -181.4375 102.679688 -181.953125 108.984375 -182.984375 C 115.296875 -184.023438 119.75 -185.0625 122.34375 -186.09375 L 122.34375 -153.4375 L 119.75 -153.4375 L 119.75 -158.109375 C 119.75 -162.253906 118.320312 -165.796875 115.46875 -168.734375 C 112.613281 -171.671875 109.203125 -173.222656 105.234375 -173.390625 L 52.359375 -173.390625 L 52.359375 -93.3125 L 96.15625 -93.3125 C 99.613281 -93.476562 102.550781 -94.769531 104.96875 -97.1875 C 107.382812 -99.613281 108.59375 -102.640625 108.59375 -106.265625 L 108.59375 -109.890625 L 111.1875 -109.890625 L 111.1875 -68.9375 L 108.59375 -68.9375 L 108.59375 -72.828125 C 108.59375 -76.285156 107.425781 -79.222656 105.09375 -81.640625 C 102.757812 -84.054688 99.867188 -85.351562 96.421875 -85.53125 L 52.359375 -85.53125 L 52.359375 -8.03125 L 89.421875 -8.03125 C 102.203125 -8.03125 111.960938 -10.878906 118.703125 -16.578125 C 125.441406 -22.285156 131.0625 -30.753906 135.5625 -41.984375 L 138.140625 -41.984375 L 123.109375 0 L 15.546875 0 L 15.546875 -2.59375 Z M 18.921875 -2.59375 "/></g></g></g><g fill="#ffffff" fill-opacity="1"><g transform="translate(991.628208, 201.832026)"><g><path d="M 18.921875 -2.59375 C 23.410156 -2.59375 27.253906 -4.191406 30.453125 -7.390625 C 33.648438 -10.585938 35.335938 -14.429688 35.515625 -18.921875 L 35.515625 -162.515625 C 35.335938 -167.003906 33.648438 -170.847656 30.453125 -174.046875 C 27.253906 -177.242188 23.410156 -178.84375 18.921875 -178.84375 L 15.546875 -178.84375 L 15.546875 -181.4375 L 72.3125 -181.4375 L 72.3125 -178.84375 L 68.9375 -178.84375 C 62.71875 -178.84375 57.96875 -176.160156 54.6875 -170.796875 C 53.132812 -168.210938 52.359375 -165.453125 52.359375 -162.515625 L 52.359375 -8.03125 L 89.421875 -8.03125 C 102.203125 -8.03125 111.960938 -10.878906 118.703125 -16.578125 C 125.441406 -22.285156 131.0625 -30.753906 135.5625 -41.984375 L 138.140625 -41.984375 L 123.109375 0 L 15.546875 0 L 15.546875 -2.59375 Z M 18.921875 -2.59375 "/></g></g></g><g fill="#ffffff" fill-opacity="1"><g transform="translate(1163.208756, 201.832026)"><g><path d="M 18.921875 -2.59375 C 23.410156 -2.59375 27.253906 -4.191406 30.453125 -7.390625 C 33.648438 -10.585938 35.335938 -14.429688 35.515625 -18.921875 L 35.515625 -162.515625 C 35.335938 -167.003906 33.648438 -170.847656 30.453125 -174.046875 C 27.253906 -177.242188 23.410156 -178.84375 18.921875 -178.84375 L 15.546875 -178.84375 L 15.546875 -181.4375 L 72.3125 -181.4375 L 72.3125 -178.84375 L 68.9375 -178.84375 C 62.71875 -178.84375 57.96875 -176.160156 54.6875 -170.796875 C 53.132812 -168.210938 52.359375 -165.453125 52.359375 -162.515625 L 52.359375 -8.03125 L 89.421875 -8.03125 C 102.203125 -8.03125 111.960938 -10.878906 118.703125 -16.578125 C 125.441406 -22.285156 131.0625 -30.753906 135.5625 -41.984375 L 138.140625 -41.984375 L 123.109375 0 L 15.546875 0 L 15.546875 -2.59375 Z M 18.921875 -2.59375 "/></g></g></g><g fill="#ffffff" fill-opacity="1"><g transform="translate(1334.78937, 201.832026)"><g><path d="M 18.921875 -2.59375 C 23.410156 -2.59375 27.253906 -4.191406 30.453125 -7.390625 C 33.648438 -10.585938 35.335938 -14.429688 35.515625 -18.921875 L 35.515625 -162.765625 C 35.335938 -167.265625 33.648438 -171.066406 30.453125 -174.171875 C 27.253906 -177.285156 23.410156 -178.84375 18.921875 -178.84375 L 15.546875 -178.84375 L 15.546875 -181.4375 L 72.3125 -181.4375 L 72.3125 -178.84375 L 68.9375 -178.84375 C 64.445312 -178.84375 60.601562 -177.285156 57.40625 -174.171875 C 54.207031 -171.066406 52.523438 -167.265625 52.359375 -162.765625 L 52.359375 -18.921875 C 52.359375 -14.429688 54 -10.585938 57.28125 -7.390625 C 60.5625 -4.191406 64.445312 -2.59375 68.9375 -2.59375 L 72.3125 -2.59375 L 72.3125 0 L 15.546875 0 L 15.546875 -2.59375 Z M 18.921875 -2.59375 "/></g></g></g></g></g></g><g transform="matrix(1, 0, 0, 1, 63, 78)"><g clip-path="url(#8421cead6d)"><g fill="#ffffff" fill-opacity="1"><g transform="translate(0.689327, 168.513297)"><g><path d="M 70.875 -114.203125 L 70.875 -12.484375 C 70.988281 -9.472656 72.113281 -6.925781 74.25 -4.84375 C 76.394531 -2.769531 78.96875 -1.734375 81.96875 -1.734375 L 84.046875 -1.734375 L 84.21875 0 L 31.546875 0 L 31.546875 -1.734375 L 33.796875 -1.734375 C 36.679688 -1.734375 39.191406 -2.769531 41.328125 -4.84375 C 43.460938 -6.925781 44.648438 -9.410156 44.890625 -12.296875 L 44.890625 -114.203125 L 21.484375 -114.203125 C 16.171875 -114.085938 11.953125 -112.410156 8.828125 -109.171875 C 5.710938 -105.941406 4.15625 -101.726562 4.15625 -96.53125 L 4.15625 -94.453125 L 2.421875 -94.453125 L 2.421875 -124.59375 C 7.160156 -122.632812 13.976562 -121.597656 22.875 -121.484375 L 92.71875 -121.484375 C 96.300781 -121.484375 100.195312 -121.828125 104.40625 -122.515625 C 108.625 -123.210938 111.539062 -123.90625 113.15625 -124.59375 L 113.15625 -94.453125 L 111.4375 -94.453125 L 111.4375 -96.53125 C 111.4375 -103.6875 108.71875 -108.769531 103.28125 -111.78125 C 100.738281 -113.28125 97.675781 -114.085938 94.09375 -114.203125 Z M 70.875 -114.203125 "/></g></g></g><g fill="#ffffff" fill-opacity="1"><g transform="translate(133.430487, 168.513297)"><g><path d="M 55.109375 -113.6875 L 47.65625 -113.6875 C 47.425781 -113.6875 47.253906 -113.6875 47.140625 -113.6875 L 47.140625 -12.65625 C 47.253906 -9.644531 48.378906 -7.070312 50.515625 -4.9375 C 52.648438 -2.800781 55.222656 -1.734375 58.234375 -1.734375 L 60.484375 -1.734375 L 60.484375 0 L 7.796875 0 L 7.796875 -1.734375 L 10.046875 -1.734375 C 14.210938 -1.734375 17.390625 -3.523438 19.578125 -7.109375 C 20.503906 -8.722656 21.023438 -10.515625 21.140625 -12.484375 L 21.140625 -108.65625 C 21.023438 -111.65625 19.898438 -114.222656 17.765625 -116.359375 C 15.628906 -118.503906 13.054688 -119.578125 10.046875 -119.578125 L 7.796875 -119.578125 L 7.796875 -121.3125 L 67.234375 -121.3125 C 78.441406 -121.3125 87.914062 -118.882812 95.65625 -114.03125 C 99.582031 -111.601562 102.703125 -108.222656 105.015625 -103.890625 C 107.328125 -99.554688 108.484375 -93.894531 108.484375 -86.90625 C 108.484375 -79.914062 106.054688 -73.1875 101.203125 -66.71875 C 96.347656 -60.25 89.300781 -56.550781 80.0625 -55.625 C 86.757812 -53.425781 92.648438 -48.34375 97.734375 -40.375 C 110.210938 -20.382812 119.457031 -8.484375 125.46875 -4.671875 C 128.46875 -2.828125 132.222656 -1.847656 136.734375 -1.734375 L 136.734375 0 L 119.75 0 C 109.695312 0 101.347656 -1.328125 94.703125 -3.984375 C 88.066406 -6.640625 82.835938 -11.316406 79.015625 -18.015625 C 76.828125 -21.828125 72.035156 -31.707031 64.640625 -47.65625 C 61.398438 -54.707031 57.472656 -58.578125 52.859375 -59.265625 L 52.859375 -61 L 58.234375 -61 C 63.429688 -61 68.019531 -62.554688 72 -65.671875 C 75.988281 -68.796875 78.675781 -73.878906 80.0625 -80.921875 C 80.519531 -83.347656 80.75 -85.257812 80.75 -86.65625 C 80.75 -96.125 78.84375 -102.96875 75.03125 -107.1875 C 71.21875 -111.40625 66.3125 -113.570312 60.3125 -113.6875 C 59.15625 -113.6875 57.421875 -113.6875 55.109375 -113.6875 Z M 55.109375 -113.6875 "/></g></g></g></g></g><g fill="#c29a52" fill-opacity="1"><g transform="translate(490.029513, 355.22112)"><g><path d="M 17.65625 -1.75 C 19.207031 -1.75 20.664062 -1.988281 22.03125 -2.46875 C 23.394531 -2.957031 24.582031 -3.65625 25.59375 -4.5625 C 26.613281 -5.46875 27.414062 -6.578125 28 -7.890625 C 28.582031 -9.203125 28.875 -10.691406 28.875 -12.359375 C 28.875 -13.941406 28.503906 -15.390625 27.765625 -16.703125 C 27.023438 -18.015625 26.085938 -19.226562 24.953125 -20.34375 C 23.828125 -21.457031 22.601562 -22.507812 21.28125 -23.5 C 19.957031 -24.488281 18.695312 -25.460938 17.5 -26.421875 C 16.351562 -27.304688 15.09375 -28.273438 13.71875 -29.328125 C 12.34375 -30.378906 11.050781 -31.539062 9.84375 -32.8125 C 8.632812 -34.082031 7.617188 -35.484375 6.796875 -37.015625 C 5.984375 -38.554688 5.578125 -40.257812 5.578125 -42.125 C 5.578125 -43.0625 5.664062 -44.039062 5.84375 -45.0625 C 6.03125 -46.09375 6.347656 -47.09375 6.796875 -48.0625 C 7.253906 -49.039062 7.851562 -49.960938 8.59375 -50.828125 C 9.332031 -51.703125 10.257812 -52.46875 11.375 -53.125 C 12.5 -53.789062 13.8125 -54.316406 15.3125 -54.703125 C 16.820312 -55.097656 18.578125 -55.296875 20.578125 -55.296875 C 23.117188 -55.296875 25.570312 -55.09375 27.9375 -54.6875 C 30.300781 -54.289062 32.34375 -53.832031 34.0625 -53.3125 L 33.203125 -41.578125 L 30.984375 -41.578125 L 30.984375 -42.640625 C 30.984375 -43.617188 30.878906 -44.6875 30.671875 -45.84375 C 30.460938 -47 30.003906 -48.0625 29.296875 -49.03125 C 28.597656 -50.007812 27.578125 -50.820312 26.234375 -51.46875 C 24.898438 -52.125 23.101562 -52.453125 20.84375 -52.453125 C 19.5 -52.453125 18.273438 -52.265625 17.171875 -51.890625 C 16.066406 -51.515625 15.125 -50.984375 14.34375 -50.296875 C 13.5625 -49.609375 12.957031 -48.769531 12.53125 -47.78125 C 12.101562 -46.789062 11.890625 -45.6875 11.890625 -44.46875 C 11.890625 -42.851562 12.207031 -41.425781 12.84375 -40.1875 C 13.476562 -38.957031 14.296875 -37.847656 15.296875 -36.859375 C 16.296875 -35.878906 17.40625 -34.96875 18.625 -34.125 C 19.84375 -33.28125 21.023438 -32.441406 22.171875 -31.609375 C 23.890625 -30.359375 25.535156 -29.113281 27.109375 -27.875 C 28.679688 -26.644531 30.0625 -25.347656 31.25 -23.984375 C 32.445312 -22.617188 33.398438 -21.15625 34.109375 -19.59375 C 34.828125 -18.039062 35.1875 -16.328125 35.1875 -14.453125 C 35.1875 -12.273438 34.691406 -10.238281 33.703125 -8.34375 C 32.722656 -6.445312 31.40625 -4.796875 29.75 -3.390625 C 28.101562 -1.984375 26.210938 -0.878906 24.078125 -0.078125 C 21.953125 0.722656 19.757812 1.125 17.5 1.125 C 14.738281 1.125 12.113281 0.90625 9.625 0.46875 C 7.132812 0.03125 4.96875 -0.472656 3.125 -1.046875 L 4.046875 -13.40625 L 6.46875 -13.40625 L 6.46875 -12.046875 C 6.46875 -10.953125 6.597656 -9.800781 6.859375 -8.59375 C 7.117188 -7.382812 7.644531 -6.269531 8.4375 -5.25 C 9.226562 -4.238281 10.359375 -3.398438 11.828125 -2.734375 C 13.296875 -2.078125 15.238281 -1.75 17.65625 -1.75 Z M 17.65625 -1.75 "/></g></g></g><g fill="#c29a52" fill-opacity="1"><g transform="translate(553.249951, 355.22112)"><g><path d="M 26.96875 -7.25 L 27.46875 -7.25 L 41.34375 -44.390625 C 41.863281 -45.710938 42.25 -46.800781 42.5 -47.65625 C 42.75 -48.519531 42.875 -49.238281 42.875 -49.8125 C 42.875 -50.457031 42.679688 -50.898438 42.296875 -51.140625 C 41.921875 -51.390625 41.359375 -51.582031 40.609375 -51.71875 L 38.9375 -51.953125 L 38.9375 -54.203125 C 39.351562 -54.097656 39.882812 -53.992188 40.53125 -53.890625 C 41.070312 -53.816406 41.769531 -53.753906 42.625 -53.703125 C 43.488281 -53.648438 44.53125 -53.625 45.75 -53.625 C 46.945312 -53.625 48.304688 -53.664062 49.828125 -53.75 C 51.347656 -53.84375 53.066406 -53.992188 54.984375 -54.203125 L 54.984375 -51.953125 C 54.304688 -51.898438 53.707031 -51.847656 53.1875 -51.796875 C 52.675781 -51.742188 52.203125 -51.695312 51.765625 -51.65625 C 51.335938 -51.613281 50.914062 -51.578125 50.5 -51.546875 C 50.09375 -51.523438 49.65625 -51.503906 49.1875 -51.484375 L 27.125 0.546875 L 24 1.203125 L 8.0625 -44.390625 C 7.519531 -45.921875 6.992188 -47.144531 6.484375 -48.0625 C 5.984375 -48.988281 5.457031 -49.703125 4.90625 -50.203125 C 4.363281 -50.710938 3.785156 -51.066406 3.171875 -51.265625 C 2.566406 -51.460938 1.910156 -51.613281 1.203125 -51.71875 L -0.46875 -51.953125 L -0.46875 -54.203125 C 0.207031 -54.097656 0.988281 -53.992188 1.875 -53.890625 C 2.625 -53.816406 3.546875 -53.753906 4.640625 -53.703125 C 5.734375 -53.648438 6.976562 -53.625 8.375 -53.625 C 9.78125 -53.625 11.3125 -53.664062 12.96875 -53.75 C 14.632812 -53.84375 16.429688 -53.992188 18.359375 -54.203125 L 18.359375 -51.953125 C 17.679688 -51.898438 17.082031 -51.847656 16.5625 -51.796875 C 16.039062 -51.742188 15.566406 -51.695312 15.140625 -51.65625 C 14.710938 -51.613281 14.289062 -51.578125 13.875 -51.546875 C 13.457031 -51.523438 13.015625 -51.503906 12.546875 -51.484375 Z M 26.96875 -7.25 "/></g></g></g><g fill="#c29a52" fill-opacity="1"><g transform="translate(629.796295, 355.22112)"><g><path d="M 2.375 -2.21875 C 3.050781 -2.269531 3.648438 -2.320312 4.171875 -2.375 C 4.691406 -2.425781 5.171875 -2.476562 5.609375 -2.53125 C 6.054688 -2.582031 6.484375 -2.617188 6.890625 -2.640625 C 7.304688 -2.671875 7.75 -2.703125 8.21875 -2.734375 C 8.351562 -6.179688 8.476562 -9.59375 8.59375 -12.96875 C 8.707031 -16.351562 8.816406 -19.585938 8.921875 -22.671875 C 9.023438 -25.765625 9.128906 -28.648438 9.234375 -31.328125 C 9.335938 -34.003906 9.425781 -36.367188 9.5 -38.421875 C 9.582031 -40.472656 9.644531 -42.160156 9.6875 -43.484375 C 9.726562 -44.816406 9.75 -45.675781 9.75 -46.0625 C 9.75 -47.175781 9.660156 -48.082031 9.484375 -48.78125 C 9.316406 -49.488281 9.070312 -50.039062 8.75 -50.4375 C 8.425781 -50.84375 8.015625 -51.128906 7.515625 -51.296875 C 7.023438 -51.472656 6.46875 -51.613281 5.84375 -51.71875 L 4.125 -51.953125 L 4.125 -54.203125 C 4.695312 -54.097656 5.390625 -53.992188 6.203125 -53.890625 C 6.867188 -53.816406 7.6875 -53.753906 8.65625 -53.703125 C 9.632812 -53.648438 10.789062 -53.625 12.125 -53.625 C 13.445312 -53.625 14.90625 -53.664062 16.5 -53.75 C 18.101562 -53.84375 19.863281 -53.992188 21.78125 -54.203125 L 21.78125 -51.953125 C 21.101562 -51.898438 20.503906 -51.847656 19.984375 -51.796875 C 19.472656 -51.742188 19 -51.695312 18.5625 -51.65625 C 18.132812 -51.613281 17.710938 -51.578125 17.296875 -51.546875 C 16.878906 -51.523438 16.441406 -51.503906 15.984375 -51.484375 C 15.847656 -48.023438 15.722656 -44.597656 15.609375 -41.203125 C 15.492188 -37.816406 15.375 -34.582031 15.25 -31.5 C 15.132812 -28.425781 15.03125 -25.546875 14.9375 -22.859375 C 14.851562 -20.171875 14.769531 -17.800781 14.6875 -15.75 C 14.613281 -13.695312 14.554688 -12.003906 14.515625 -10.671875 C 14.472656 -9.347656 14.453125 -8.503906 14.453125 -8.140625 C 14.453125 -7.003906 14.535156 -6.082031 14.703125 -5.375 C 14.878906 -4.675781 15.128906 -4.125 15.453125 -3.71875 C 15.773438 -3.320312 16.179688 -3.03125 16.671875 -2.84375 C 17.171875 -2.664062 17.734375 -2.535156 18.359375 -2.453125 L 20.03125 -2.21875 L 20.03125 0 C 19.457031 -0.0703125 18.769531 -0.160156 17.96875 -0.265625 C 17.289062 -0.316406 16.457031 -0.375 15.46875 -0.4375 C 14.476562 -0.507812 13.335938 -0.546875 12.046875 -0.546875 C 10.710938 -0.546875 9.253906 -0.503906 7.671875 -0.421875 C 6.085938 -0.347656 4.320312 -0.207031 2.375 0 Z M 2.375 -2.21875 "/></g></g></g><g fill="#c29a52" fill-opacity="1"><g transform="translate(677.664667, 355.22112)"><g><path d="M 8.296875 -2.734375 C 8.429688 -6.179688 8.554688 -9.59375 8.671875 -12.96875 C 8.785156 -16.351562 8.898438 -19.585938 9.015625 -22.671875 C 9.140625 -25.765625 9.238281 -28.648438 9.3125 -31.328125 C 9.394531 -34.003906 9.46875 -36.367188 9.53125 -38.421875 C 9.59375 -40.472656 9.644531 -42.160156 9.6875 -43.484375 C 9.726562 -44.816406 9.75 -45.675781 9.75 -46.0625 C 9.75 -47.175781 9.671875 -48.082031 9.515625 -48.78125 C 9.359375 -49.488281 9.125 -50.039062 8.8125 -50.4375 C 8.5 -50.84375 8.097656 -51.128906 7.609375 -51.296875 C 7.128906 -51.472656 6.566406 -51.613281 5.921875 -51.71875 L 4.25 -51.953125 L 4.25 -54.203125 C 4.820312 -54.097656 5.5 -53.992188 6.28125 -53.890625 C 6.945312 -53.816406 7.765625 -53.753906 8.734375 -53.703125 C 9.710938 -53.648438 10.867188 -53.625 12.203125 -53.625 C 13.523438 -53.625 14.984375 -53.664062 16.578125 -53.75 C 18.179688 -53.84375 19.941406 -53.992188 21.859375 -54.203125 L 21.859375 -51.953125 C 21.179688 -51.898438 20.585938 -51.847656 20.078125 -51.796875 C 19.578125 -51.742188 19.101562 -51.695312 18.65625 -51.65625 C 18.21875 -51.613281 17.789062 -51.578125 17.375 -51.546875 C 16.957031 -51.523438 16.519531 -51.503906 16.0625 -51.484375 C 15.925781 -48.023438 15.800781 -44.597656 15.6875 -41.203125 C 15.570312 -37.816406 15.453125 -34.582031 15.328125 -31.5 C 15.210938 -28.425781 15.109375 -25.546875 15.015625 -22.859375 C 14.929688 -20.171875 14.847656 -17.800781 14.765625 -15.75 C 14.691406 -13.695312 14.632812 -12.003906 14.59375 -10.671875 C 14.550781 -9.347656 14.53125 -8.503906 14.53125 -8.140625 C 14.53125 -6.898438 14.75 -5.898438 15.1875 -5.140625 C 15.632812 -4.390625 16.273438 -3.8125 17.109375 -3.40625 C 17.941406 -3.007812 18.941406 -2.738281 20.109375 -2.59375 C 21.273438 -2.445312 22.597656 -2.375 24.078125 -2.375 C 26.160156 -2.375 27.9375 -2.539062 29.40625 -2.875 C 30.875 -3.21875 32.117188 -3.78125 33.140625 -4.5625 C 34.171875 -5.34375 35.007812 -6.378906 35.65625 -7.671875 C 36.300781 -8.972656 36.832031 -10.597656 37.25 -12.546875 L 39.75 -12.546875 C 39.644531 -11.847656 39.488281 -10.929688 39.28125 -9.796875 C 39.070312 -8.671875 38.816406 -7.476562 38.515625 -6.21875 C 38.222656 -4.957031 37.875 -3.703125 37.46875 -2.453125 C 37.0625 -1.203125 36.628906 -0.125 36.171875 0.78125 C 33.410156 0.695312 30.726562 0.582031 28.125 0.4375 C 25.53125 0.300781 23.148438 0.164062 20.984375 0.03125 C 18.816406 -0.09375 16.925781 -0.207031 15.3125 -0.3125 C 13.707031 -0.414062 12.515625 -0.46875 11.734375 -0.46875 C 10.410156 -0.46875 9.003906 -0.441406 7.515625 -0.390625 C 6.035156 -0.335938 4.320312 -0.207031 2.375 0 L 2.453125 -2.21875 C 3.128906 -2.269531 3.726562 -2.320312 4.25 -2.375 C 4.769531 -2.425781 5.25 -2.476562 5.6875 -2.53125 C 6.132812 -2.582031 6.5625 -2.617188 6.96875 -2.640625 C 7.382812 -2.671875 7.828125 -2.703125 8.296875 -2.734375 Z M 8.296875 -2.734375 "/></g></g></g><g fill="#c29a52" fill-opacity="1"><g transform="translate(742.054044, 355.22112)"><g><path d="M 3.046875 -54.203125 C 3.609375 -54.097656 4.296875 -53.992188 5.109375 -53.890625 C 5.785156 -53.816406 6.609375 -53.753906 7.578125 -53.703125 C 8.554688 -53.648438 9.707031 -53.625 11.03125 -53.625 C 12.351562 -53.625 13.804688 -53.664062 15.390625 -53.75 C 16.972656 -53.84375 18.726562 -53.992188 20.65625 -54.203125 L 20.65625 -51.953125 C 19.976562 -51.898438 19.382812 -51.847656 18.875 -51.796875 C 18.375 -51.742188 17.898438 -51.695312 17.453125 -51.65625 C 17.015625 -51.613281 16.585938 -51.578125 16.171875 -51.546875 C 15.753906 -51.523438 15.3125 -51.503906 14.84375 -51.484375 C 14.664062 -46.878906 14.515625 -42.90625 14.390625 -39.5625 C 14.273438 -36.226562 14.171875 -33.382812 14.078125 -31.03125 C 13.992188 -28.6875 13.925781 -26.757812 13.875 -25.25 C 13.820312 -23.75 13.785156 -22.535156 13.765625 -21.609375 C 13.753906 -20.679688 13.742188 -19.976562 13.734375 -19.5 C 13.722656 -19.019531 13.71875 -18.640625 13.71875 -18.359375 C 13.71875 -13.003906 14.992188 -8.972656 17.546875 -6.265625 C 20.109375 -3.566406 24.132812 -2.21875 29.625 -2.21875 C 34.945312 -2.21875 39.007812 -3.75 41.8125 -6.8125 C 44.625 -9.882812 46.144531 -14.5625 46.375 -20.84375 C 46.65625 -28.175781 46.867188 -33.925781 47.015625 -38.09375 C 47.160156 -42.257812 47.234375 -44.914062 47.234375 -46.0625 C 47.234375 -47.175781 47.15625 -48.082031 47 -48.78125 C 46.84375 -49.488281 46.609375 -50.039062 46.296875 -50.4375 C 45.984375 -50.84375 45.585938 -51.128906 45.109375 -51.296875 C 44.628906 -51.472656 44.0625 -51.613281 43.40625 -51.71875 L 41.734375 -51.953125 L 41.734375 -54.203125 C 42.234375 -54.097656 42.84375 -53.992188 43.5625 -53.890625 C 44.1875 -53.816406 44.957031 -53.753906 45.875 -53.703125 C 46.800781 -53.648438 47.90625 -53.625 49.1875 -53.625 C 50.425781 -53.625 51.816406 -53.664062 53.359375 -53.75 C 54.910156 -53.84375 56.648438 -53.992188 58.578125 -54.203125 L 58.578125 -51.953125 C 57.898438 -51.898438 57.304688 -51.847656 56.796875 -51.796875 C 56.296875 -51.742188 55.820312 -51.695312 55.375 -51.65625 C 54.9375 -51.613281 54.507812 -51.578125 54.09375 -51.546875 C 53.675781 -51.523438 53.234375 -51.503906 52.765625 -51.484375 L 50.109375 -20.265625 C 49.804688 -16.804688 49.160156 -13.742188 48.171875 -11.078125 C 47.179688 -8.421875 45.820312 -6.1875 44.09375 -4.375 C 42.363281 -2.570312 40.242188 -1.203125 37.734375 -0.265625 C 35.234375 0.660156 32.332031 1.125 29.03125 1.125 C 25.78125 1.125 22.832031 0.785156 20.1875 0.109375 C 17.539062 -0.554688 15.28125 -1.582031 13.40625 -2.96875 C 11.53125 -4.363281 10.078125 -6.109375 9.046875 -8.203125 C 8.023438 -10.296875 7.515625 -12.769531 7.515625 -15.625 C 7.515625 -16.175781 7.523438 -17.003906 7.546875 -18.109375 C 7.578125 -19.210938 7.617188 -20.484375 7.671875 -21.921875 C 7.722656 -23.359375 7.78125 -24.914062 7.84375 -26.59375 C 7.914062 -28.269531 7.988281 -29.953125 8.0625 -31.640625 C 8.144531 -33.328125 8.21875 -34.976562 8.28125 -36.59375 C 8.34375 -38.207031 8.398438 -39.671875 8.453125 -40.984375 C 8.503906 -42.296875 8.539062 -43.398438 8.5625 -44.296875 C 8.59375 -45.191406 8.609375 -45.78125 8.609375 -46.0625 C 8.609375 -47.175781 8.523438 -48.082031 8.359375 -48.78125 C 8.191406 -49.488281 7.941406 -50.039062 7.609375 -50.4375 C 7.285156 -50.84375 6.878906 -51.128906 6.390625 -51.296875 C 5.898438 -51.472656 5.34375 -51.613281 4.71875 -51.71875 L 3.046875 -51.953125 Z M 3.046875 -54.203125 "/></g></g></g><g fill="#c29a52" fill-opacity="1"><g transform="translate(824.48406, 355.22112)"><g><path d="M 16.0625 -51.640625 C 15.957031 -48.160156 15.84375 -44.71875 15.71875 -41.3125 C 15.601562 -37.90625 15.492188 -34.648438 15.390625 -31.546875 C 15.285156 -28.441406 15.1875 -25.550781 15.09375 -22.875 C 15.007812 -20.195312 14.925781 -17.828125 14.84375 -15.765625 C 14.769531 -13.703125 14.710938 -12.003906 14.671875 -10.671875 C 14.628906 -9.347656 14.609375 -8.503906 14.609375 -8.140625 C 14.609375 -7.003906 14.691406 -6.085938 14.859375 -5.390625 C 15.035156 -4.703125 15.285156 -4.15625 15.609375 -3.75 C 15.929688 -3.351562 16.335938 -3.0625 16.828125 -2.875 C 17.328125 -2.695312 17.890625 -2.554688 18.515625 -2.453125 L 20.1875 -2.21875 L 20.1875 0 C 19.613281 -0.0703125 18.925781 -0.160156 18.125 -0.265625 C 17.445312 -0.316406 16.613281 -0.375 15.625 -0.4375 C 14.632812 -0.507812 13.492188 -0.546875 12.203125 -0.546875 C 10.867188 -0.546875 9.410156 -0.503906 7.828125 -0.421875 C 6.242188 -0.347656 4.492188 -0.207031 2.578125 0 L 2.578125 -2.21875 C 3.242188 -2.269531 3.832031 -2.320312 4.34375 -2.375 C 4.851562 -2.425781 5.328125 -2.476562 5.765625 -2.53125 C 6.210938 -2.582031 6.640625 -2.617188 7.046875 -2.640625 C 7.460938 -2.671875 7.90625 -2.703125 8.375 -2.734375 C 8.457031 -6.179688 8.554688 -9.59375 8.671875 -12.96875 C 8.785156 -16.351562 8.894531 -19.585938 9 -22.671875 C 9.101562 -25.765625 9.207031 -28.648438 9.3125 -31.328125 C 9.414062 -34.003906 9.5 -36.367188 9.5625 -38.421875 C 9.632812 -40.472656 9.695312 -42.160156 9.75 -43.484375 C 9.800781 -44.816406 9.828125 -45.675781 9.828125 -46.0625 C 9.828125 -47.175781 9.75 -48.082031 9.59375 -48.78125 C 9.4375 -49.488281 9.203125 -50.039062 8.890625 -50.4375 C 8.578125 -50.84375 8.175781 -51.128906 7.6875 -51.296875 C 7.207031 -51.472656 6.644531 -51.613281 6 -51.71875 L 4.328125 -51.953125 L 4.328125 -54.203125 C 5.054688 -54.097656 5.832031 -53.992188 6.65625 -53.890625 C 7.363281 -53.816406 8.164062 -53.753906 9.0625 -53.703125 C 9.957031 -53.648438 10.875 -53.625 11.8125 -53.625 C 12.695312 -53.625 13.546875 -53.675781 14.359375 -53.78125 C 15.179688 -53.882812 16.046875 -53.992188 16.953125 -54.109375 C 17.859375 -54.222656 18.84375 -54.332031 19.90625 -54.4375 C 20.976562 -54.539062 22.210938 -54.59375 23.609375 -54.59375 C 26.578125 -54.59375 29.140625 -54.179688 31.296875 -53.359375 C 33.453125 -52.546875 35.222656 -51.453125 36.609375 -50.078125 C 38.003906 -48.703125 39.03125 -47.101562 39.6875 -45.28125 C 40.351562 -43.46875 40.6875 -41.546875 40.6875 -39.515625 C 40.6875 -37.148438 40.222656 -34.953125 39.296875 -32.921875 C 38.378906 -30.898438 37.132812 -29.140625 35.5625 -27.640625 C 33.988281 -26.148438 32.140625 -24.976562 30.015625 -24.125 C 27.898438 -23.269531 25.660156 -22.84375 23.296875 -22.84375 C 22.492188 -22.84375 21.773438 -22.875 21.140625 -22.9375 C 20.503906 -23 19.953125 -23.097656 19.484375 -23.234375 L 19.5625 -25.6875 C 20.414062 -25.53125 21.285156 -25.453125 22.171875 -25.453125 C 23.992188 -25.453125 25.65625 -25.78125 27.15625 -26.4375 C 28.664062 -27.101562 29.96875 -28.023438 31.0625 -29.203125 C 32.15625 -30.390625 33 -31.800781 33.59375 -33.4375 C 34.1875 -35.070312 34.484375 -36.851562 34.484375 -38.78125 C 34.484375 -42.9375 33.320312 -46.179688 31 -48.515625 C 28.675781 -50.859375 25.175781 -52.03125 20.5 -52.03125 C 19.613281 -52.03125 18.816406 -51.992188 18.109375 -51.921875 C 17.410156 -51.859375 16.726562 -51.765625 16.0625 -51.640625 Z M 16.0625 -51.640625 "/></g></g></g><g fill="#c29a52" fill-opacity="1"><g transform="translate(890.899576, 355.22112)"><g><path d="M 16.0625 -51.640625 C 15.957031 -48.160156 15.84375 -44.71875 15.71875 -41.3125 C 15.601562 -37.90625 15.492188 -34.648438 15.390625 -31.546875 C 15.285156 -28.441406 15.1875 -25.550781 15.09375 -22.875 C 15.007812 -20.195312 14.925781 -17.828125 14.84375 -15.765625 C 14.769531 -13.703125 14.710938 -12.003906 14.671875 -10.671875 C 14.628906 -9.347656 14.609375 -8.503906 14.609375 -8.140625 C 14.609375 -7.003906 14.691406 -6.085938 14.859375 -5.390625 C 15.035156 -4.703125 15.285156 -4.15625 15.609375 -3.75 C 15.929688 -3.351562 16.335938 -3.0625 16.828125 -2.875 C 17.328125 -2.695312 17.890625 -2.554688 18.515625 -2.453125 L 20.1875 -2.21875 L 20.1875 0 C 19.613281 -0.0703125 18.925781 -0.160156 18.125 -0.265625 C 17.445312 -0.316406 16.613281 -0.375 15.625 -0.4375 C 14.632812 -0.507812 13.492188 -0.546875 12.203125 -0.546875 C 10.867188 -0.546875 9.410156 -0.503906 7.828125 -0.421875 C 6.242188 -0.347656 4.492188 -0.207031 2.578125 0 L 2.578125 -2.21875 C 3.242188 -2.269531 3.832031 -2.320312 4.34375 -2.375 C 4.851562 -2.425781 5.328125 -2.476562 5.765625 -2.53125 C 6.210938 -2.582031 6.640625 -2.617188 7.046875 -2.640625 C 7.460938 -2.671875 7.90625 -2.703125 8.375 -2.734375 C 8.457031 -6.179688 8.554688 -9.59375 8.671875 -12.96875 C 8.785156 -16.351562 8.894531 -19.585938 9 -22.671875 C 9.101562 -25.765625 9.207031 -28.648438 9.3125 -31.328125 C 9.414062 -34.003906 9.5 -36.367188 9.5625 -38.421875 C 9.632812 -40.472656 9.695312 -42.160156 9.75 -43.484375 C 9.800781 -44.816406 9.828125 -45.675781 9.828125 -46.0625 C 9.828125 -47.175781 9.75 -48.082031 9.59375 -48.78125 C 9.4375 -49.488281 9.203125 -50.039062 8.890625 -50.4375 C 8.578125 -50.84375 8.175781 -51.128906 7.6875 -51.296875 C 7.207031 -51.472656 6.644531 -51.613281 6 -51.71875 L 4.328125 -51.953125 L 4.328125 -54.203125 C 5.054688 -54.097656 5.832031 -53.992188 6.65625 -53.890625 C 7.363281 -53.816406 8.164062 -53.753906 9.0625 -53.703125 C 9.957031 -53.648438 10.875 -53.625 11.8125 -53.625 C 12.695312 -53.625 13.546875 -53.675781 14.359375 -53.78125 C 15.179688 -53.882812 16.046875 -53.992188 16.953125 -54.109375 C 17.859375 -54.222656 18.84375 -54.332031 19.90625 -54.4375 C 20.976562 -54.539062 22.210938 -54.59375 23.609375 -54.59375 C 26.578125 -54.59375 29.140625 -54.179688 31.296875 -53.359375 C 33.453125 -52.546875 35.222656 -51.453125 36.609375 -50.078125 C 38.003906 -48.703125 39.03125 -47.101562 39.6875 -45.28125 C 40.351562 -43.46875 40.6875 -41.546875 40.6875 -39.515625 C 40.6875 -37.148438 40.222656 -34.953125 39.296875 -32.921875 C 38.378906 -30.898438 37.132812 -29.140625 35.5625 -27.640625 C 33.988281 -26.148438 32.140625 -24.976562 30.015625 -24.125 C 27.898438 -23.269531 25.660156 -22.84375 23.296875 -22.84375 C 22.492188 -22.84375 21.773438 -22.875 21.140625 -22.9375 C 20.503906 -23 19.953125 -23.097656 19.484375 -23.234375 L 19.5625 -25.6875 C 20.414062 -25.53125 21.285156 -25.453125 22.171875 -25.453125 C 23.992188 -25.453125 25.65625 -25.78125 27.15625 -26.4375 C 28.664062 -27.101562 29.96875 -28.023438 31.0625 -29.203125 C 32.15625 -30.390625 33 -31.800781 33.59375 -33.4375 C 34.1875 -35.070312 34.484375 -36.851562 34.484375 -38.78125 C 34.484375 -42.9375 33.320312 -46.179688 31 -48.515625 C 28.675781 -50.859375 25.175781 -52.03125 20.5 -52.03125 C 19.613281 -52.03125 18.816406 -51.992188 18.109375 -51.921875 C 17.410156 -51.859375 16.726562 -51.765625 16.0625 -51.640625 Z M 16.0625 -51.640625 "/></g></g></g><g fill="#c29a52" fill-opacity="1"><g transform="translate(957.315137, 355.22112)"><g><path d="M 10.75 -27.703125 C 10.75 -24.328125 11.207031 -21.082031 12.125 -17.96875 C 13.050781 -14.851562 14.390625 -12.09375 16.140625 -9.6875 C 17.898438 -7.28125 20.050781 -5.351562 22.59375 -3.90625 C 25.144531 -2.46875 28.046875 -1.75 31.296875 -1.75 C 34.410156 -1.75 37.15625 -2.375 39.53125 -3.625 C 41.914062 -4.875 43.898438 -6.582031 45.484375 -8.75 C 47.066406 -10.914062 48.257812 -13.445312 49.0625 -16.34375 C 49.863281 -19.238281 50.265625 -22.351562 50.265625 -25.6875 C 50.265625 -29.425781 49.789062 -32.925781 48.84375 -36.1875 C 47.894531 -39.445312 46.5625 -42.285156 44.84375 -44.703125 C 43.132812 -47.117188 41.09375 -49.015625 38.71875 -50.390625 C 36.34375 -51.765625 33.738281 -52.453125 30.90625 -52.453125 C 29.425781 -52.453125 27.90625 -52.289062 26.34375 -51.96875 C 24.78125 -51.644531 23.253906 -51.097656 21.765625 -50.328125 C 20.273438 -49.566406 18.859375 -48.5625 17.515625 -47.3125 C 16.179688 -46.0625 15.015625 -44.519531 14.015625 -42.6875 C 13.015625 -40.851562 12.21875 -38.703125 11.625 -36.234375 C 11.039062 -33.773438 10.75 -30.929688 10.75 -27.703125 Z M 3.578125 -26.890625 C 3.578125 -30.972656 4.28125 -34.753906 5.6875 -38.234375 C 7.09375 -41.710938 9.066406 -44.710938 11.609375 -47.234375 C 14.160156 -49.753906 17.222656 -51.726562 20.796875 -53.15625 C 24.367188 -54.582031 28.320312 -55.296875 32.65625 -55.296875 C 35.300781 -55.296875 37.753906 -54.9375 40.015625 -54.21875 C 42.273438 -53.507812 44.328125 -52.523438 46.171875 -51.265625 C 48.023438 -50.003906 49.664062 -48.515625 51.09375 -46.796875 C 52.519531 -45.085938 53.71875 -43.238281 54.6875 -41.25 C 55.664062 -39.257812 56.398438 -37.160156 56.890625 -34.953125 C 57.390625 -32.742188 57.640625 -30.535156 57.640625 -28.328125 C 57.640625 -23.992188 56.9375 -20.023438 55.53125 -16.421875 C 54.125 -12.828125 52.210938 -9.722656 49.796875 -7.109375 C 47.390625 -4.503906 44.585938 -2.476562 41.390625 -1.03125 C 38.191406 0.40625 34.800781 1.125 31.21875 1.125 C 28.125 1.125 25.296875 0.753906 22.734375 0.015625 C 20.179688 -0.722656 17.878906 -1.75 15.828125 -3.0625 C 13.773438 -4.375 11.976562 -5.914062 10.4375 -7.6875 C 8.90625 -9.46875 7.632812 -11.398438 6.625 -13.484375 C 5.613281 -15.566406 4.851562 -17.742188 4.34375 -20.015625 C 3.832031 -22.285156 3.578125 -24.578125 3.578125 -26.890625 Z M 3.578125 -26.890625 "/></g></g></g><g fill="#c29a52" fill-opacity="1"><g transform="translate(1042.238867, 355.22112)"><g/></g></g><g fill="#c29a52" fill-opacity="1"><g transform="translate(1083.48325, 355.22112)"><g><path d="M 2.375 -2.21875 C 3.050781 -2.269531 3.648438 -2.320312 4.171875 -2.375 C 4.691406 -2.425781 5.171875 -2.476562 5.609375 -2.53125 C 6.054688 -2.582031 6.484375 -2.617188 6.890625 -2.640625 C 7.304688 -2.671875 7.75 -2.703125 8.21875 -2.734375 C 8.351562 -6.179688 8.476562 -9.59375 8.59375 -12.96875 C 8.707031 -16.351562 8.816406 -19.585938 8.921875 -22.671875 C 9.023438 -25.765625 9.128906 -28.648438 9.234375 -31.328125 C 9.335938 -34.003906 9.425781 -36.367188 9.5 -38.421875 C 9.582031 -40.472656 9.644531 -42.160156 9.6875 -43.484375 C 9.726562 -44.816406 9.75 -45.675781 9.75 -46.0625 C 9.75 -47.175781 9.660156 -48.082031 9.484375 -48.78125 C 9.316406 -49.488281 9.070312 -50.039062 8.75 -50.4375 C 8.425781 -50.84375 8.015625 -51.128906 7.515625 -51.296875 C 7.023438 -51.472656 6.46875 -51.613281 5.84375 -51.71875 L 4.125 -51.953125 L 4.125 -54.203125 C 4.695312 -54.097656 5.390625 -53.992188 6.203125 -53.890625 C 6.867188 -53.816406 7.6875 -53.753906 8.65625 -53.703125 C 9.632812 -53.648438 10.789062 -53.625 12.125 -53.625 C 13.445312 -53.625 14.90625 -53.664062 16.5 -53.75 C 18.101562 -53.84375 19.863281 -53.992188 21.78125 -54.203125 L 21.78125 -51.953125 C 21.101562 -51.898438 20.503906 -51.847656 19.984375 -51.796875 C 19.472656 -51.742188 19 -51.695312 18.5625 -51.65625 C 18.132812 -51.613281 17.710938 -51.578125 17.296875 -51.546875 C 16.878906 -51.523438 16.441406 -51.503906 15.984375 -51.484375 C 15.847656 -48.023438 15.722656 -44.597656 15.609375 -41.203125 C 15.492188 -37.816406 15.375 -34.582031 15.25 -31.5 C 15.132812 -28.425781 15.03125 -25.546875 14.9375 -22.859375 C 14.851562 -20.171875 14.769531 -17.800781 14.6875 -15.75 C 14.613281 -13.695312 14.554688 -12.003906 14.515625 -10.671875 C 14.472656 -9.347656 14.453125 -8.503906 14.453125 -8.140625 C 14.453125 -7.003906 14.535156 -6.082031 14.703125 -5.375 C 14.878906 -4.675781 15.128906 -4.125 15.453125 -3.71875 C 15.773438 -3.320312 16.179688 -3.03125 16.671875 -2.84375 C 17.171875 -2.664062 17.734375 -2.535156 18.359375 -2.453125 L 20.03125 -2.21875 L 20.03125 0 C 19.457031 -0.0703125 18.769531 -0.160156 17.96875 -0.265625 C 17.289062 -0.316406 16.457031 -0.375 15.46875 -0.4375 C 14.476562 -0.507812 13.335938 -0.546875 12.046875 -0.546875 C 10.710938 -0.546875 9.253906 -0.503906 7.671875 -0.421875 C 6.085938 -0.347656 4.320312 -0.207031 2.375 0 Z M 2.375 -2.21875 "/></g></g></g><g fill="#c29a52" fill-opacity="1"><g transform="translate(1131.351598, 355.22112)"><g><path d="M 60.75 -9.828125 C 60.78125 -8.285156 60.875 -7.0625 61.03125 -6.15625 C 61.1875 -5.25 61.421875 -4.535156 61.734375 -4.015625 C 62.046875 -3.492188 62.441406 -3.128906 62.921875 -2.921875 C 63.398438 -2.710938 64.003906 -2.554688 64.734375 -2.453125 L 66.40625 -2.21875 L 66.40625 0 C 65.832031 -0.0703125 65.144531 -0.160156 64.34375 -0.265625 C 63.664062 -0.316406 62.832031 -0.375 61.84375 -0.4375 C 60.851562 -0.507812 59.710938 -0.546875 58.421875 -0.546875 C 57.097656 -0.546875 55.640625 -0.503906 54.046875 -0.421875 C 52.460938 -0.347656 50.695312 -0.207031 48.75 0 L 48.75 -2.21875 C 49.425781 -2.269531 50.023438 -2.320312 50.546875 -2.375 C 51.066406 -2.425781 51.546875 -2.476562 51.984375 -2.53125 C 52.429688 -2.582031 52.859375 -2.617188 53.265625 -2.640625 C 53.679688 -2.671875 54.125 -2.703125 54.59375 -2.734375 L 54.4375 -42.71875 L 53.703125 -42.71875 L 33.828125 -2.140625 L 32 -2.140625 L 14.53125 -42.875 L 13.875 -42.875 L 11.5 -12.859375 C 11.445312 -12.472656 11.40625 -12.023438 11.375 -11.515625 C 11.351562 -11.003906 11.320312 -10.492188 11.28125 -9.984375 C 11.238281 -9.484375 11.210938 -9.007812 11.203125 -8.5625 C 11.191406 -8.125 11.1875 -7.773438 11.1875 -7.515625 C 11.1875 -6.503906 11.273438 -5.691406 11.453125 -5.078125 C 11.640625 -4.472656 11.894531 -3.988281 12.21875 -3.625 C 12.539062 -3.257812 12.941406 -2.992188 13.421875 -2.828125 C 13.898438 -2.660156 14.453125 -2.535156 15.078125 -2.453125 L 16.75 -2.21875 L 16.75 0 C 16.34375 -0.0703125 15.800781 -0.160156 15.125 -0.265625 C 14.550781 -0.316406 13.832031 -0.375 12.96875 -0.4375 C 12.113281 -0.507812 11.09375 -0.546875 9.90625 -0.546875 C 8.707031 -0.546875 7.347656 -0.503906 5.828125 -0.421875 C 4.304688 -0.347656 2.570312 -0.207031 0.625 0 L 0.625 -2.21875 C 1.300781 -2.269531 1.898438 -2.320312 2.421875 -2.375 C 2.941406 -2.425781 3.421875 -2.476562 3.859375 -2.53125 C 4.296875 -2.582031 4.722656 -2.617188 5.140625 -2.640625 C 5.554688 -2.671875 6 -2.703125 6.46875 -2.734375 L 12.125 -54.015625 L 15.828125 -55.296875 L 34.640625 -11.8125 L 35.1875 -11.8125 L 55.734375 -54.4375 L 59.625 -55.21875 Z M 60.75 -9.828125 "/></g></g></g><g fill="#c29a52" fill-opacity="1"><g transform="translate(1224.22416, 355.22112)"><g><path d="M 60.75 -9.828125 C 60.78125 -8.285156 60.875 -7.0625 61.03125 -6.15625 C 61.1875 -5.25 61.421875 -4.535156 61.734375 -4.015625 C 62.046875 -3.492188 62.441406 -3.128906 62.921875 -2.921875 C 63.398438 -2.710938 64.003906 -2.554688 64.734375 -2.453125 L 66.40625 -2.21875 L 66.40625 0 C 65.832031 -0.0703125 65.144531 -0.160156 64.34375 -0.265625 C 63.664062 -0.316406 62.832031 -0.375 61.84375 -0.4375 C 60.851562 -0.507812 59.710938 -0.546875 58.421875 -0.546875 C 57.097656 -0.546875 55.640625 -0.503906 54.046875 -0.421875 C 52.460938 -0.347656 50.695312 -0.207031 48.75 0 L 48.75 -2.21875 C 49.425781 -2.269531 50.023438 -2.320312 50.546875 -2.375 C 51.066406 -2.425781 51.546875 -2.476562 51.984375 -2.53125 C 52.429688 -2.582031 52.859375 -2.617188 53.265625 -2.640625 C 53.679688 -2.671875 54.125 -2.703125 54.59375 -2.734375 L 54.4375 -42.71875 L 53.703125 -42.71875 L 33.828125 -2.140625 L 32 -2.140625 L 14.53125 -42.875 L 13.875 -42.875 L 11.5 -12.859375 C 11.445312 -12.472656 11.40625 -12.023438 11.375 -11.515625 C 11.351562 -11.003906 11.320312 -10.492188 11.28125 -9.984375 C 11.238281 -9.484375 11.210938 -9.007812 11.203125 -8.5625 C 11.191406 -8.125 11.1875 -7.773438 11.1875 -7.515625 C 11.1875 -6.503906 11.273438 -5.691406 11.453125 -5.078125 C 11.640625 -4.472656 11.894531 -3.988281 12.21875 -3.625 C 12.539062 -3.257812 12.941406 -2.992188 13.421875 -2.828125 C 13.898438 -2.660156 14.453125 -2.535156 15.078125 -2.453125 L 16.75 -2.21875 L 16.75 0 C 16.34375 -0.0703125 15.800781 -0.160156 15.125 -0.265625 C 14.550781 -0.316406 13.832031 -0.375 12.96875 -0.4375 C 12.113281 -0.507812 11.09375 -0.546875 9.90625 -0.546875 C 8.707031 -0.546875 7.347656 -0.503906 5.828125 -0.421875 C 4.304688 -0.347656 2.570312 -0.207031 0.625 0 L 0.625 -2.21875 C 1.300781 -2.269531 1.898438 -2.320312 2.421875 -2.375 C 2.941406 -2.425781 3.421875 -2.476562 3.859375 -2.53125 C 4.296875 -2.582031 4.722656 -2.617188 5.140625 -2.640625 C 5.554688 -2.671875 6 -2.703125 6.46875 -2.734375 L 12.125 -54.015625 L 15.828125 -55.296875 L 34.640625 -11.8125 L 35.1875 -11.8125 L 55.734375 -54.4375 L 59.625 -55.21875 Z M 60.75 -9.828125 "/></g></g></g><g fill="#c29a52" fill-opacity="1"><g transform="translate(1317.096722, 355.22112)"><g><path d="M 10.75 -27.703125 C 10.75 -24.328125 11.207031 -21.082031 12.125 -17.96875 C 13.050781 -14.851562 14.390625 -12.09375 16.140625 -9.6875 C 17.898438 -7.28125 20.050781 -5.351562 22.59375 -3.90625 C 25.144531 -2.46875 28.046875 -1.75 31.296875 -1.75 C 34.410156 -1.75 37.15625 -2.375 39.53125 -3.625 C 41.914062 -4.875 43.898438 -6.582031 45.484375 -8.75 C 47.066406 -10.914062 48.257812 -13.445312 49.0625 -16.34375 C 49.863281 -19.238281 50.265625 -22.351562 50.265625 -25.6875 C 50.265625 -29.425781 49.789062 -32.925781 48.84375 -36.1875 C 47.894531 -39.445312 46.5625 -42.285156 44.84375 -44.703125 C 43.132812 -47.117188 41.09375 -49.015625 38.71875 -50.390625 C 36.34375 -51.765625 33.738281 -52.453125 30.90625 -52.453125 C 29.425781 -52.453125 27.90625 -52.289062 26.34375 -51.96875 C 24.78125 -51.644531 23.253906 -51.097656 21.765625 -50.328125 C 20.273438 -49.566406 18.859375 -48.5625 17.515625 -47.3125 C 16.179688 -46.0625 15.015625 -44.519531 14.015625 -42.6875 C 13.015625 -40.851562 12.21875 -38.703125 11.625 -36.234375 C 11.039062 -33.773438 10.75 -30.929688 10.75 -27.703125 Z M 3.578125 -26.890625 C 3.578125 -30.972656 4.28125 -34.753906 5.6875 -38.234375 C 7.09375 -41.710938 9.066406 -44.710938 11.609375 -47.234375 C 14.160156 -49.753906 17.222656 -51.726562 20.796875 -53.15625 C 24.367188 -54.582031 28.320312 -55.296875 32.65625 -55.296875 C 35.300781 -55.296875 37.753906 -54.9375 40.015625 -54.21875 C 42.273438 -53.507812 44.328125 -52.523438 46.171875 -51.265625 C 48.023438 -50.003906 49.664062 -48.515625 51.09375 -46.796875 C 52.519531 -45.085938 53.71875 -43.238281 54.6875 -41.25 C 55.664062 -39.257812 56.398438 -37.160156 56.890625 -34.953125 C 57.390625 -32.742188 57.640625 -30.535156 57.640625 -28.328125 C 57.640625 -23.992188 56.9375 -20.023438 55.53125 -16.421875 C 54.125 -12.828125 52.210938 -9.722656 49.796875 -7.109375 C 47.390625 -4.503906 44.585938 -2.476562 41.390625 -1.03125 C 38.191406 0.40625 34.800781 1.125 31.21875 1.125 C 28.125 1.125 25.296875 0.753906 22.734375 0.015625 C 20.179688 -0.722656 17.878906 -1.75 15.828125 -3.0625 C 13.773438 -4.375 11.976562 -5.914062 10.4375 -7.6875 C 8.90625 -9.46875 7.632812 -11.398438 6.625 -13.484375 C 5.613281 -15.566406 4.851562 -17.742188 4.34375 -20.015625 C 3.832031 -22.285156 3.578125 -24.578125 3.578125 -26.890625 Z M 3.578125 -26.890625 "/></g></g></g><g fill="#c29a52" fill-opacity="1"><g transform="translate(1402.020452, 355.22112)"><g><path d="M 36.78125 -43.109375 C 36.78125 -41.492188 36.535156 -40 36.046875 -38.625 C 35.554688 -37.25 34.914062 -35.984375 34.125 -34.828125 C 33.332031 -33.671875 32.441406 -32.628906 31.453125 -31.703125 C 30.460938 -30.773438 29.472656 -29.988281 28.484375 -29.34375 C 30.640625 -28.769531 32.5 -28.03125 34.0625 -27.125 C 35.625 -26.21875 36.910156 -25.164062 37.921875 -23.96875 C 38.929688 -22.769531 39.675781 -21.445312 40.15625 -20 C 40.632812 -18.5625 40.875 -17.023438 40.875 -15.390625 C 40.875 -13.390625 40.515625 -11.441406 39.796875 -9.546875 C 39.085938 -7.648438 38.007812 -5.960938 36.5625 -4.484375 C 35.125 -3.003906 33.332031 -1.804688 31.1875 -0.890625 C 29.050781 0.015625 26.550781 0.46875 23.6875 0.46875 C 22.65625 0.46875 21.617188 0.421875 20.578125 0.328125 C 19.535156 0.234375 18.492188 0.128906 17.453125 0.015625 C 16.421875 -0.0976562 15.367188 -0.207031 14.296875 -0.3125 C 13.234375 -0.414062 12.171875 -0.46875 11.109375 -0.46875 C 9.859375 -0.46875 8.523438 -0.425781 7.109375 -0.34375 C 5.691406 -0.269531 4.085938 -0.15625 2.296875 0 L 2.375 -2.21875 C 3.050781 -2.269531 3.648438 -2.320312 4.171875 -2.375 C 4.691406 -2.425781 5.171875 -2.476562 5.609375 -2.53125 C 6.054688 -2.582031 6.484375 -2.617188 6.890625 -2.640625 C 7.304688 -2.671875 7.75 -2.703125 8.21875 -2.734375 C 8.476562 -10.597656 8.710938 -17.648438 8.921875 -23.890625 C 9.003906 -26.535156 9.085938 -29.144531 9.171875 -31.71875 C 9.265625 -34.289062 9.347656 -36.585938 9.421875 -38.609375 C 9.503906 -40.640625 9.566406 -42.304688 9.609375 -43.609375 C 9.648438 -44.910156 9.671875 -45.625 9.671875 -45.75 C 9.671875 -46.945312 9.59375 -47.914062 9.4375 -48.65625 C 9.28125 -49.394531 9.03125 -49.972656 8.6875 -50.390625 C 8.351562 -50.804688 7.9375 -51.101562 7.4375 -51.28125 C 6.945312 -51.46875 6.378906 -51.613281 5.734375 -51.71875 L 4.046875 -51.953125 L 4.125 -54.203125 C 4.75 -54.097656 5.453125 -53.992188 6.234375 -53.890625 C 6.910156 -53.816406 7.691406 -53.753906 8.578125 -53.703125 C 9.460938 -53.648438 10.4375 -53.625 11.5 -53.625 C 12.613281 -53.625 13.59375 -53.675781 14.4375 -53.78125 C 15.28125 -53.882812 16.128906 -53.992188 16.984375 -54.109375 C 17.847656 -54.222656 18.785156 -54.332031 19.796875 -54.4375 C 20.804688 -54.539062 22.050781 -54.59375 23.53125 -54.59375 C 25.925781 -54.59375 27.96875 -54.269531 29.65625 -53.625 C 31.34375 -52.976562 32.710938 -52.117188 33.765625 -51.046875 C 34.816406 -49.984375 35.582031 -48.765625 36.0625 -47.390625 C 36.539062 -46.015625 36.78125 -44.585938 36.78125 -43.109375 Z M 15.078125 -27.78125 C 14.972656 -24.351562 14.867188 -21.265625 14.765625 -18.515625 C 14.710938 -17.335938 14.671875 -16.164062 14.640625 -15 C 14.617188 -13.832031 14.585938 -12.773438 14.546875 -11.828125 C 14.515625 -10.878906 14.488281 -10.070312 14.46875 -9.40625 C 14.457031 -8.75 14.453125 -8.328125 14.453125 -8.140625 C 14.453125 -7.054688 14.566406 -6.113281 14.796875 -5.3125 C 15.035156 -4.519531 15.445312 -3.859375 16.03125 -3.328125 C 16.613281 -2.796875 17.40625 -2.398438 18.40625 -2.140625 C 19.414062 -1.878906 20.695312 -1.75 22.25 -1.75 C 22.664062 -1.75 23.265625 -1.785156 24.046875 -1.859375 C 24.828125 -1.941406 25.671875 -2.117188 26.578125 -2.390625 C 27.484375 -2.671875 28.40625 -3.082031 29.34375 -3.625 C 30.28125 -4.164062 31.128906 -4.90625 31.890625 -5.84375 C 32.660156 -6.78125 33.285156 -7.941406 33.765625 -9.328125 C 34.242188 -10.722656 34.484375 -12.40625 34.484375 -14.375 C 34.484375 -16.300781 34.191406 -18.09375 33.609375 -19.75 C 33.023438 -21.414062 32.113281 -22.859375 30.875 -24.078125 C 29.644531 -25.304688 28.070312 -26.269531 26.15625 -26.96875 C 24.25 -27.664062 21.972656 -28.015625 19.328125 -28.015625 C 17.921875 -28.015625 16.503906 -27.9375 15.078125 -27.78125 Z M 17.375 -30.546875 C 18.707031 -30.546875 19.960938 -30.5 21.140625 -30.40625 C 22.328125 -30.320312 23.460938 -30.210938 24.546875 -30.078125 C 25.429688 -30.703125 26.242188 -31.414062 26.984375 -32.21875 C 27.722656 -33.03125 28.363281 -33.910156 28.90625 -34.859375 C 29.457031 -35.804688 29.878906 -36.828125 30.171875 -37.921875 C 30.472656 -39.015625 30.625 -40.15625 30.625 -41.34375 C 30.625 -43.0625 30.390625 -44.582031 29.921875 -45.90625 C 29.460938 -47.226562 28.816406 -48.34375 27.984375 -49.25 C 27.148438 -50.164062 26.171875 -50.859375 25.046875 -51.328125 C 23.929688 -51.796875 22.710938 -52.03125 21.390625 -52.03125 C 20.640625 -52.03125 19.875 -52.019531 19.09375 -52 C 18.3125 -51.988281 17.40625 -51.921875 16.375 -51.796875 C 16.289062 -51.035156 16.203125 -50.085938 16.109375 -48.953125 C 16.023438 -47.828125 15.929688 -46.601562 15.828125 -45.28125 C 15.722656 -43.957031 15.628906 -42.585938 15.546875 -41.171875 C 15.472656 -39.753906 15.421875 -38.394531 15.390625 -37.09375 L 15.15625 -30.546875 Z M 17.375 -30.546875 "/></g></g></g><g fill="#c29a52" fill-opacity="1"><g transform="translate(1469.916647, 355.22112)"><g><path d="M 2.375 -2.21875 C 3.050781 -2.269531 3.648438 -2.320312 4.171875 -2.375 C 4.691406 -2.425781 5.171875 -2.476562 5.609375 -2.53125 C 6.054688 -2.582031 6.484375 -2.617188 6.890625 -2.640625 C 7.304688 -2.671875 7.75 -2.703125 8.21875 -2.734375 C 8.351562 -6.179688 8.476562 -9.59375 8.59375 -12.96875 C 8.707031 -16.351562 8.816406 -19.585938 8.921875 -22.671875 C 9.023438 -25.765625 9.128906 -28.648438 9.234375 -31.328125 C 9.335938 -34.003906 9.425781 -36.367188 9.5 -38.421875 C 9.582031 -40.472656 9.644531 -42.160156 9.6875 -43.484375 C 9.726562 -44.816406 9.75 -45.675781 9.75 -46.0625 C 9.75 -47.175781 9.660156 -48.082031 9.484375 -48.78125 C 9.316406 -49.488281 9.070312 -50.039062 8.75 -50.4375 C 8.425781 -50.84375 8.015625 -51.128906 7.515625 -51.296875 C 7.023438 -51.472656 6.46875 -51.613281 5.84375 -51.71875 L 4.125 -51.953125 L 4.125 -54.203125 C 4.695312 -54.097656 5.390625 -53.992188 6.203125 -53.890625 C 6.867188 -53.816406 7.6875 -53.753906 8.65625 -53.703125 C 9.632812 -53.648438 10.789062 -53.625 12.125 -53.625 C 13.445312 -53.625 14.90625 -53.664062 16.5 -53.75 C 18.101562 -53.84375 19.863281 -53.992188 21.78125 -54.203125 L 21.78125 -51.953125 C 21.101562 -51.898438 20.503906 -51.847656 19.984375 -51.796875 C 19.472656 -51.742188 19 -51.695312 18.5625 -51.65625 C 18.132812 -51.613281 17.710938 -51.578125 17.296875 -51.546875 C 16.878906 -51.523438 16.441406 -51.503906 15.984375 -51.484375 C 15.847656 -48.023438 15.722656 -44.597656 15.609375 -41.203125 C 15.492188 -37.816406 15.375 -34.582031 15.25 -31.5 C 15.132812 -28.425781 15.03125 -25.546875 14.9375 -22.859375 C 14.851562 -20.171875 14.769531 -17.800781 14.6875 -15.75 C 14.613281 -13.695312 14.554688 -12.003906 14.515625 -10.671875 C 14.472656 -9.347656 14.453125 -8.503906 14.453125 -8.140625 C 14.453125 -7.003906 14.535156 -6.082031 14.703125 -5.375 C 14.878906 -4.675781 15.128906 -4.125 15.453125 -3.71875 C 15.773438 -3.320312 16.179688 -3.03125 16.671875 -2.84375 C 17.171875 -2.664062 17.734375 -2.535156 18.359375 -2.453125 L 20.03125 -2.21875 L 20.03125 0 C 19.457031 -0.0703125 18.769531 -0.160156 17.96875 -0.265625 C 17.289062 -0.316406 16.457031 -0.375 15.46875 -0.4375 C 14.476562 -0.507812 13.335938 -0.546875 12.046875 -0.546875 C 10.710938 -0.546875 9.253906 -0.503906 7.671875 -0.421875 C 6.085938 -0.347656 4.320312 -0.207031 2.375 0 Z M 2.375 -2.21875 "/></g></g></g><g fill="#c29a52" fill-opacity="1"><g transform="translate(1517.784949, 355.22112)"><g><path d="M 8.296875 -2.734375 C 8.429688 -6.179688 8.554688 -9.59375 8.671875 -12.96875 C 8.785156 -16.351562 8.898438 -19.585938 9.015625 -22.671875 C 9.140625 -25.765625 9.238281 -28.648438 9.3125 -31.328125 C 9.394531 -34.003906 9.46875 -36.367188 9.53125 -38.421875 C 9.59375 -40.472656 9.644531 -42.160156 9.6875 -43.484375 C 9.726562 -44.816406 9.75 -45.675781 9.75 -46.0625 C 9.75 -47.175781 9.671875 -48.082031 9.515625 -48.78125 C 9.359375 -49.488281 9.125 -50.039062 8.8125 -50.4375 C 8.5 -50.84375 8.097656 -51.128906 7.609375 -51.296875 C 7.128906 -51.472656 6.566406 -51.613281 5.921875 -51.71875 L 4.25 -51.953125 L 4.25 -54.203125 C 4.820312 -54.097656 5.5 -53.992188 6.28125 -53.890625 C 6.945312 -53.816406 7.765625 -53.753906 8.734375 -53.703125 C 9.710938 -53.648438 10.867188 -53.625 12.203125 -53.625 C 13.523438 -53.625 14.984375 -53.664062 16.578125 -53.75 C 18.179688 -53.84375 19.941406 -53.992188 21.859375 -54.203125 L 21.859375 -51.953125 C 21.179688 -51.898438 20.585938 -51.847656 20.078125 -51.796875 C 19.578125 -51.742188 19.101562 -51.695312 18.65625 -51.65625 C 18.21875 -51.613281 17.789062 -51.578125 17.375 -51.546875 C 16.957031 -51.523438 16.519531 -51.503906 16.0625 -51.484375 C 15.925781 -48.023438 15.800781 -44.597656 15.6875 -41.203125 C 15.570312 -37.816406 15.453125 -34.582031 15.328125 -31.5 C 15.210938 -28.425781 15.109375 -25.546875 15.015625 -22.859375 C 14.929688 -20.171875 14.847656 -17.800781 14.765625 -15.75 C 14.691406 -13.695312 14.632812 -12.003906 14.59375 -10.671875 C 14.550781 -9.347656 14.53125 -8.503906 14.53125 -8.140625 C 14.53125 -6.898438 14.75 -5.898438 15.1875 -5.140625 C 15.632812 -4.390625 16.273438 -3.8125 17.109375 -3.40625 C 17.941406 -3.007812 18.941406 -2.738281 20.109375 -2.59375 C 21.273438 -2.445312 22.597656 -2.375 24.078125 -2.375 C 26.160156 -2.375 27.9375 -2.539062 29.40625 -2.875 C 30.875 -3.21875 32.117188 -3.78125 33.140625 -4.5625 C 34.171875 -5.34375 35.007812 -6.378906 35.65625 -7.671875 C 36.300781 -8.972656 36.832031 -10.597656 37.25 -12.546875 L 39.75 -12.546875 C 39.644531 -11.847656 39.488281 -10.929688 39.28125 -9.796875 C 39.070312 -8.671875 38.816406 -7.476562 38.515625 -6.21875 C 38.222656 -4.957031 37.875 -3.703125 37.46875 -2.453125 C 37.0625 -1.203125 36.628906 -0.125 36.171875 0.78125 C 33.410156 0.695312 30.726562 0.582031 28.125 0.4375 C 25.53125 0.300781 23.148438 0.164062 20.984375 0.03125 C 18.816406 -0.09375 16.925781 -0.207031 15.3125 -0.3125 C 13.707031 -0.414062 12.515625 -0.46875 11.734375 -0.46875 C 10.410156 -0.46875 9.003906 -0.441406 7.515625 -0.390625 C 6.035156 -0.335938 4.320312 -0.207031 2.375 0 L 2.453125 -2.21875 C 3.128906 -2.269531 3.726562 -2.320312 4.25 -2.375 C 4.769531 -2.425781 5.25 -2.476562 5.6875 -2.53125 C 6.132812 -2.582031 6.5625 -2.617188 6.96875 -2.640625 C 7.382812 -2.671875 7.828125 -2.703125 8.296875 -2.734375 Z M 8.296875 -2.734375 "/></g></g></g><g fill="#c29a52" fill-opacity="1"><g transform="translate(1582.174349, 355.22112)"><g><path d="M 2.375 -2.21875 C 3.050781 -2.269531 3.648438 -2.320312 4.171875 -2.375 C 4.691406 -2.425781 5.171875 -2.476562 5.609375 -2.53125 C 6.054688 -2.582031 6.484375 -2.617188 6.890625 -2.640625 C 7.304688 -2.671875 7.75 -2.703125 8.21875 -2.734375 C 8.351562 -6.179688 8.476562 -9.59375 8.59375 -12.96875 C 8.707031 -16.351562 8.816406 -19.585938 8.921875 -22.671875 C 9.023438 -25.765625 9.128906 -28.648438 9.234375 -31.328125 C 9.335938 -34.003906 9.425781 -36.367188 9.5 -38.421875 C 9.582031 -40.472656 9.644531 -42.160156 9.6875 -43.484375 C 9.726562 -44.816406 9.75 -45.675781 9.75 -46.0625 C 9.75 -47.175781 9.660156 -48.082031 9.484375 -48.78125 C 9.316406 -49.488281 9.070312 -50.039062 8.75 -50.4375 C 8.425781 -50.84375 8.015625 -51.128906 7.515625 -51.296875 C 7.023438 -51.472656 6.46875 -51.613281 5.84375 -51.71875 L 4.125 -51.953125 L 4.125 -54.203125 C 4.695312 -54.097656 5.390625 -53.992188 6.203125 -53.890625 C 6.867188 -53.816406 7.6875 -53.753906 8.65625 -53.703125 C 9.632812 -53.648438 10.789062 -53.625 12.125 -53.625 C 13.445312 -53.625 14.90625 -53.664062 16.5 -53.75 C 18.101562 -53.84375 19.863281 -53.992188 21.78125 -54.203125 L 21.78125 -51.953125 C 21.101562 -51.898438 20.503906 -51.847656 19.984375 -51.796875 C 19.472656 -51.742188 19 -51.695312 18.5625 -51.65625 C 18.132812 -51.613281 17.710938 -51.578125 17.296875 -51.546875 C 16.878906 -51.523438 16.441406 -51.503906 15.984375 -51.484375 C 15.847656 -48.023438 15.722656 -44.597656 15.609375 -41.203125 C 15.492188 -37.816406 15.375 -34.582031 15.25 -31.5 C 15.132812 -28.425781 15.03125 -25.546875 14.9375 -22.859375 C 14.851562 -20.171875 14.769531 -17.800781 14.6875 -15.75 C 14.613281 -13.695312 14.554688 -12.003906 14.515625 -10.671875 C 14.472656 -9.347656 14.453125 -8.503906 14.453125 -8.140625 C 14.453125 -7.003906 14.535156 -6.082031 14.703125 -5.375 C 14.878906 -4.675781 15.128906 -4.125 15.453125 -3.71875 C 15.773438 -3.320312 16.179688 -3.03125 16.671875 -2.84375 C 17.171875 -2.664062 17.734375 -2.535156 18.359375 -2.453125 L 20.03125 -2.21875 L 20.03125 0 C 19.457031 -0.0703125 18.769531 -0.160156 17.96875 -0.265625 C 17.289062 -0.316406 16.457031 -0.375 15.46875 -0.4375 C 14.476562 -0.507812 13.335938 -0.546875 12.046875 -0.546875 C 10.710938 -0.546875 9.253906 -0.503906 7.671875 -0.421875 C 6.085938 -0.347656 4.320312 -0.207031 2.375 0 Z M 2.375 -2.21875 "/></g></g></g><g fill="#c29a52" fill-opacity="1"><g transform="translate(1630.042743, 355.22112)"><g><path d="M 23.53125 -45.5625 L 15.3125 -21.625 L 31.21875 -21.625 L 24.671875 -45.5625 Z M 26.96875 -56.203125 L 40.140625 -13.5625 C 41.097656 -10.394531 42.148438 -7.84375 43.296875 -5.90625 C 44.441406 -3.96875 45.867188 -2.859375 47.578125 -2.578125 L 49.734375 -2.21875 L 49.65625 0 C 48.320312 -0.15625 46.882812 -0.269531 45.34375 -0.34375 C 43.800781 -0.425781 42.222656 -0.46875 40.609375 -0.46875 C 38.890625 -0.46875 37.210938 -0.425781 35.578125 -0.34375 C 33.941406 -0.269531 32.382812 -0.15625 30.90625 0 L 30.984375 -2.21875 L 36.484375 -2.734375 L 32 -18.90625 L 30.46875 -18.90625 C 29.769531 -18.90625 28.847656 -18.894531 27.703125 -18.875 C 26.566406 -18.863281 25.273438 -18.832031 23.828125 -18.78125 C 22.390625 -18.726562 20.835938 -18.648438 19.171875 -18.546875 C 17.503906 -18.441406 15.789062 -18.300781 14.03125 -18.125 L 11.890625 -12.125 C 11.421875 -10.875 11.007812 -9.6875 10.65625 -8.5625 C 10.300781 -7.445312 10.125 -6.476562 10.125 -5.65625 C 10.125 -4.820312 10.34375 -4.140625 10.78125 -3.609375 C 11.226562 -3.078125 12 -2.734375 13.09375 -2.578125 L 15.390625 -2.21875 L 15.3125 0 C 13.914062 -0.15625 12.570312 -0.285156 11.28125 -0.390625 C 10 -0.492188 8.65625 -0.546875 7.25 -0.546875 C 5.84375 -0.546875 4.382812 -0.492188 2.875 -0.390625 C 1.375 -0.285156 -0.296875 -0.15625 -2.140625 0 L -2.0625 -2.21875 C -1.3125 -2.300781 -0.597656 -2.378906 0.078125 -2.453125 C 0.671875 -2.503906 1.265625 -2.554688 1.859375 -2.609375 C 2.460938 -2.660156 2.957031 -2.703125 3.34375 -2.734375 C 4.414062 -4.960938 5.53125 -7.398438 6.6875 -10.046875 C 7.84375 -12.703125 9.023438 -15.484375 10.234375 -18.390625 C 11.441406 -21.304688 12.648438 -24.320312 13.859375 -27.4375 C 15.066406 -30.550781 16.253906 -33.679688 17.421875 -36.828125 C 18.585938 -39.972656 19.707031 -43.101562 20.78125 -46.21875 C 21.863281 -49.332031 22.882812 -52.359375 23.84375 -55.296875 Z M 26.96875 -56.203125 "/></g></g></g><g fill="#c29a52" fill-opacity="1"><g transform="translate(1703.316035, 355.22112)"><g><path d="M 2.375 -2.21875 C 3.050781 -2.269531 3.648438 -2.320312 4.171875 -2.375 C 4.691406 -2.425781 5.171875 -2.476562 5.609375 -2.53125 C 6.054688 -2.582031 6.484375 -2.617188 6.890625 -2.640625 C 7.304688 -2.671875 7.75 -2.703125 8.21875 -2.734375 C 8.351562 -6.179688 8.476562 -9.59375 8.59375 -12.96875 C 8.707031 -16.351562 8.816406 -19.585938 8.921875 -22.671875 C 9.023438 -25.765625 9.128906 -28.648438 9.234375 -31.328125 C 9.335938 -34.003906 9.425781 -36.367188 9.5 -38.421875 C 9.582031 -40.472656 9.644531 -42.160156 9.6875 -43.484375 C 9.726562 -44.816406 9.75 -45.675781 9.75 -46.0625 C 9.75 -47.175781 9.671875 -48.082031 9.515625 -48.78125 C 9.359375 -49.488281 9.113281 -50.039062 8.78125 -50.4375 C 8.457031 -50.84375 8.046875 -51.128906 7.546875 -51.296875 C 7.054688 -51.472656 6.488281 -51.613281 5.84375 -51.71875 L 4.125 -51.953125 L 4.125 -54.203125 C 4.851562 -54.097656 5.632812 -53.992188 6.46875 -53.890625 C 7.164062 -53.816406 7.960938 -53.753906 8.859375 -53.703125 C 9.753906 -53.648438 10.6875 -53.625 11.65625 -53.625 C 12.539062 -53.625 13.382812 -53.675781 14.1875 -53.78125 C 14.988281 -53.882812 15.816406 -53.992188 16.671875 -54.109375 C 17.535156 -54.222656 18.445312 -54.332031 19.40625 -54.4375 C 20.363281 -54.539062 21.429688 -54.59375 22.609375 -54.59375 C 25.722656 -54.59375 28.382812 -54.207031 30.59375 -53.4375 C 32.800781 -52.675781 34.601562 -51.648438 36 -50.359375 C 37.40625 -49.078125 38.429688 -47.609375 39.078125 -45.953125 C 39.734375 -44.304688 40.0625 -42.613281 40.0625 -40.875 C 40.0625 -38.488281 39.625 -36.4375 38.75 -34.71875 C 37.882812 -33.007812 36.820312 -31.5625 35.5625 -30.375 C 34.300781 -29.195312 32.960938 -28.25 31.546875 -27.53125 C 30.128906 -26.820312 28.875 -26.296875 27.78125 -25.953125 C 29.757812 -22.390625 31.773438 -19.035156 33.828125 -15.890625 C 35.878906 -12.753906 37.898438 -10.003906 39.890625 -7.640625 C 41.878906 -5.273438 43.800781 -3.410156 45.65625 -2.046875 C 47.507812 -0.679688 49.242188 0 50.859375 0 L 50.78125 1.359375 C 49.789062 1.515625 48.828125 1.59375 47.890625 1.59375 C 45.765625 1.539062 43.71875 1.023438 41.75 0.046875 C 39.789062 -0.921875 37.925781 -2.171875 36.15625 -3.703125 C 34.394531 -5.234375 32.738281 -6.96875 31.1875 -8.90625 C 29.644531 -10.84375 28.226562 -12.785156 26.9375 -14.734375 C 25.65625 -16.679688 24.519531 -18.535156 23.53125 -20.296875 C 22.550781 -22.066406 21.734375 -23.578125 21.078125 -24.828125 C 20.398438 -24.773438 19.691406 -24.734375 18.953125 -24.703125 C 18.210938 -24.679688 17.429688 -24.671875 16.609375 -24.671875 L 15 -24.671875 C 14.976562 -23.890625 14.945312 -22.984375 14.90625 -21.953125 C 14.863281 -20.929688 14.820312 -19.875 14.78125 -18.78125 C 14.75 -17.6875 14.710938 -16.582031 14.671875 -15.46875 C 14.628906 -14.351562 14.59375 -13.3125 14.5625 -12.34375 C 14.539062 -11.382812 14.515625 -10.535156 14.484375 -9.796875 C 14.460938 -9.054688 14.453125 -8.503906 14.453125 -8.140625 C 14.453125 -7.023438 14.53125 -6.125 14.6875 -5.4375 C 14.84375 -4.75 15.078125 -4.195312 15.390625 -3.78125 C 15.703125 -3.363281 16.101562 -3.0625 16.59375 -2.875 C 17.09375 -2.695312 17.679688 -2.554688 18.359375 -2.453125 L 20.03125 -2.21875 L 20.03125 0 C 19.457031 -0.0703125 18.769531 -0.160156 17.96875 -0.265625 C 17.289062 -0.316406 16.457031 -0.375 15.46875 -0.4375 C 14.476562 -0.507812 13.335938 -0.546875 12.046875 -0.546875 C 10.710938 -0.546875 9.253906 -0.503906 7.671875 -0.421875 C 6.085938 -0.347656 4.320312 -0.207031 2.375 0 Z M 15.078125 -27.359375 L 17.296875 -27.359375 C 20.546875 -27.359375 23.234375 -27.738281 25.359375 -28.5 C 27.492188 -29.269531 29.1875 -30.273438 30.4375 -31.515625 C 31.6875 -32.765625 32.5625 -34.195312 33.0625 -35.8125 C 33.570312 -37.425781 33.828125 -39.085938 33.828125 -40.796875 C 33.828125 -41.628906 33.738281 -42.476562 33.5625 -43.34375 C 33.394531 -44.21875 33.109375 -45.070312 32.703125 -45.90625 C 32.304688 -46.738281 31.773438 -47.523438 31.109375 -48.265625 C 30.453125 -49.003906 29.648438 -49.648438 28.703125 -50.203125 C 27.753906 -50.765625 26.632812 -51.207031 25.34375 -51.53125 C 24.0625 -51.863281 22.585938 -52.03125 20.921875 -52.03125 C 19.992188 -52.03125 19.148438 -52.003906 18.390625 -51.953125 C 17.640625 -51.898438 16.8125 -51.796875 15.90625 -51.640625 Z M 15.078125 -27.359375 "/></g></g></g><g fill="#c29a52" fill-opacity="1"><g transform="translate(1775.537269, 355.22112)"><g><path d="M 31.453125 -25.609375 C 29.890625 -25.816406 28.304688 -26 26.703125 -26.15625 C 25.109375 -26.3125 23.582031 -26.4375 22.125 -26.53125 C 20.675781 -26.632812 19.347656 -26.71875 18.140625 -26.78125 C 16.929688 -26.851562 15.9375 -26.914062 15.15625 -26.96875 C 15.050781 -23.851562 14.945312 -21.007812 14.84375 -18.4375 C 14.789062 -17.34375 14.75 -16.25 14.71875 -15.15625 C 14.695312 -14.0625 14.664062 -13.050781 14.625 -12.125 C 14.59375 -11.207031 14.566406 -10.425781 14.546875 -9.78125 C 14.535156 -9.132812 14.53125 -8.691406 14.53125 -8.453125 C 14.53125 -7.109375 14.710938 -6.03125 15.078125 -5.21875 C 15.441406 -4.414062 15.992188 -3.804688 16.734375 -3.390625 C 17.472656 -2.972656 18.390625 -2.695312 19.484375 -2.5625 C 20.578125 -2.4375 21.847656 -2.375 23.296875 -2.375 C 25.378906 -2.375 27.15625 -2.503906 28.625 -2.765625 C 30.09375 -3.023438 31.335938 -3.503906 32.359375 -4.203125 C 33.390625 -4.910156 34.226562 -5.878906 34.875 -7.109375 C 35.53125 -8.347656 36.066406 -9.941406 36.484375 -11.890625 L 38.9375 -11.890625 C 38.832031 -11.179688 38.675781 -10.296875 38.46875 -9.234375 C 38.257812 -8.171875 38.003906 -7.046875 37.703125 -5.859375 C 37.398438 -4.679688 37.046875 -3.503906 36.640625 -2.328125 C 36.242188 -1.160156 35.8125 -0.125 35.34375 0.78125 C 32.59375 0.695312 29.960938 0.582031 27.453125 0.4375 C 24.941406 0.300781 22.65625 0.164062 20.59375 0.03125 C 18.53125 -0.09375 16.734375 -0.207031 15.203125 -0.3125 C 13.671875 -0.414062 12.515625 -0.46875 11.734375 -0.46875 C 10.410156 -0.46875 9.003906 -0.441406 7.515625 -0.390625 C 6.035156 -0.335938 4.320312 -0.207031 2.375 0 L 2.453125 -2.21875 C 3.128906 -2.269531 3.726562 -2.320312 4.25 -2.375 C 4.769531 -2.425781 5.25 -2.476562 5.6875 -2.53125 C 6.132812 -2.582031 6.5625 -2.617188 6.96875 -2.640625 C 7.382812 -2.671875 7.828125 -2.703125 8.296875 -2.734375 C 8.554688 -10.335938 8.789062 -17.21875 9 -23.375 C 9.082031 -26 9.164062 -28.59375 9.25 -31.15625 C 9.34375 -33.71875 9.425781 -36.035156 9.5 -38.109375 C 9.582031 -40.191406 9.644531 -41.929688 9.6875 -43.328125 C 9.726562 -44.734375 9.75 -45.59375 9.75 -45.90625 C 9.75 -47.070312 9.675781 -48.015625 9.53125 -48.734375 C 9.382812 -49.453125 9.15625 -50.007812 8.84375 -50.40625 C 8.53125 -50.8125 8.125 -51.101562 7.625 -51.28125 C 7.132812 -51.46875 6.539062 -51.613281 5.84375 -51.71875 L 4.25 -51.953125 L 4.25 -54.203125 C 4.976562 -54.097656 5.898438 -53.992188 7.015625 -53.890625 C 7.972656 -53.816406 9.179688 -53.753906 10.640625 -53.703125 C 12.097656 -53.648438 13.878906 -53.625 15.984375 -53.625 L 25.375 -53.625 C 26.40625 -53.625 27.414062 -53.628906 28.40625 -53.640625 C 29.394531 -53.648438 30.394531 -53.675781 31.40625 -53.71875 C 32.425781 -53.757812 33.476562 -53.816406 34.5625 -53.890625 C 35.65625 -53.972656 36.828125 -54.078125 38.078125 -54.203125 L 36.859375 -41.03125 L 34.484375 -41.03125 C 34.515625 -41.550781 34.535156 -41.960938 34.546875 -42.265625 C 34.554688 -42.566406 34.5625 -42.800781 34.5625 -42.96875 C 34.5625 -43.132812 34.5625 -43.25 34.5625 -43.3125 C 34.5625 -43.375 34.5625 -43.429688 34.5625 -43.484375 C 34.5625 -44.347656 34.453125 -45.164062 34.234375 -45.9375 C 34.015625 -46.71875 33.585938 -47.414062 32.953125 -48.03125 C 32.316406 -48.644531 31.429688 -49.148438 30.296875 -49.546875 C 29.171875 -49.953125 27.695312 -50.21875 25.875 -50.34375 L 16.296875 -51.015625 C 16.085938 -48.878906 15.921875 -46.710938 15.796875 -44.515625 C 15.679688 -42.328125 15.597656 -40.3125 15.546875 -38.46875 L 15.234375 -29.703125 L 31.84375 -30.546875 Z M 31.453125 -25.609375 "/></g></g></g><path stroke-linecap="butt" transform="matrix(0.749952, -0.000000000000000093, 0.000000000000000093, 0.749952, 493.728587, 251.585464)" fill="none" stroke-linejoin="miter" d="M 0.00250946 2.000759 L 1759.396434 2.000759 " stroke="url(#5fe81e0eef)" stroke-width="4" stroke-miterlimit="4"/></svg>